<svg xmlns="http://www.w3.org/2000/svg" width="19" height="18" viewBox="0 0 19 18">
  <path fill="#000000" d="M1005.43107,420.712367 L997.408005,405.6707 C996.931739,404.776433 995.649872,404.776433 995.172339,405.6707 L987.150539,420.712367 C986.700872,421.555967 987.312672,422.575633 988.269005,422.575633 L1004.31387,422.575633 C1005.26894,422.575633 1005.88074,421.555967 1005.43107,420.712367 Z M996.290805,420.0423 C995.591605,420.0423 995.024139,419.474833 995.024139,418.775633 C995.024139,418.076433 995.591605,417.508967 996.290805,417.508967 C996.990005,417.508967 997.557472,418.076433 997.557472,418.775633 C997.557472,419.474833 996.990005,420.0423 996.290805,420.0423 Z M997.557472,416.2423 L995.024139,416.2423 L995.024139,411.175633 L997.557472,411.175633 L997.557472,416.2423 Z" transform="translate(-987 -405)"/>
</svg>
