
<svg width="27" height="27" viewBox="0 0 27 27" xmlns="http://www.w3.org/2000/svg"><title>8A482AFA-906C-4C9B-A489-5CD99B7390BE</title><path d="M13.36 0l-.707.707L.707 12.653 0 13.36l.707.707 11.946 11.947.707.707.707-.706 11.947-11.947.707-.707-.706-.707L14.067.707 13.36 0zM24.6 14.067v-1.414L12.652 24.6h1.414L2.12 12.652v1.414L14.068 2.12h-1.414L24.6 14.068zm-9.52.426V13.08l-3.29 3.287 1.415 1.414 3.288-3.287.707-.707-.707-.707-3.372-3.373-1.413 1.414 3.372 3.373z" fill="#ffffff" fill-rule="evenodd"/></svg>
