<svg viewBox="0 0 12 12" xmlns="http://www.w3.org/2000/svg"><path d="M8.58 10.048a4.772 4.772 0 0 1-1.543.64L6.6 12H5.4l-.437-1.312a4.772 4.772 0 0 1-1.544-.64l-1.237.619-.849-.849.619-1.237a4.772 4.772 0 0 1-.64-1.544L0 6.6V5.4l1.312-.437a4.772 4.772 0 0 1 .64-1.544l-.619-1.237.849-.849 1.237.619a4.772 4.772 0 0 1 1.544-.64L5.4 0h1.2l.437 1.312a4.772 4.772 0 0 1 1.544.64l1.237-.619.849.849-.619 1.237c.298.466.517.987.64 1.544L12 5.4v1.2l-1.312.437a4.772 4.772 0 0 1-.64 1.544l.619 1.237-.849.849-1.237-.619zM6 7.2a1.2 1.2 0 1 0 0-2.4 1.2 1.2 0 0 0 0 2.4z" fill="#8abbc7" fill-rule="evenodd"/></svg>
