<?xml version="1.0" encoding="UTF-8" standalone="no"?>
<svg width="67px" height="45px" viewBox="0 0 67 45" version="1.1" xmlns="http://www.w3.org/2000/svg" xmlns:xlink="http://www.w3.org/1999/xlink">
    <!-- Generator: sketchtool 39.1 (31720) - http://www.bohemiancoding.com/sketch -->
    <title>B756F575-031E-4136-94B2-AF1AEC7401C8</title>
    <desc>Created with sketchtool.</desc>
    <defs></defs>
    <g id="ABOUT" stroke="none" stroke-width="1" fill="none" fill-rule="evenodd">
        <g id="About-Partners" transform="translate(-967.000000, -1575.000000)" fill="#FFFFFF">
            <g id="icon-step3" transform="translate(967.000000, 1575.000000)">
                <path d="M66.3783613,44.5294768 C66.3470756,43.6889026 66.3686099,42.8460036 66.3686099,42.0039765 C66.1172406,41.0954008 66.2150254,40.1592178 66.2430607,39.2423599 C66.2781386,38.0975226 65.7523758,37.3747887 64.9397594,36.7906732 C64.4504289,36.4390415 63.9076012,36.2036517 63.3536677,36.0056046 C62.1872923,35.5885868 61.0593808,35.0707292 59.9242912,34.5681284 C58.157934,33.7861111 56.466473,32.763909 54.6108636,32.274676 C53.3995234,31.9553014 52.6534061,31.2872011 52.1973929,30.1147564 C52.0890441,29.8363571 51.9312611,29.5794625 51.8314447,29.2981572 C51.7094168,28.9542265 51.4835094,28.8095053 51.1610362,28.735837 C50.421149,28.5669957 50.3488261,28.3875473 50.7173476,27.663215 C50.8415425,27.4191071 51.0052847,27.1956321 51.167808,26.9770973 C51.5061273,26.5223009 51.6835485,26.0121444 51.7086042,25.4294819 C51.7271589,24.9992416 51.7784892,24.5704544 51.8166821,24.1410859 C51.8745133,23.4892595 52.1547306,23.000753 52.7189572,22.7150886 C52.975744,22.585043 53.2445846,22.4413389 53.3656644,22.1545121 C54.0416258,20.5519724 54.3533996,18.8763456 53.7179336,17.2062403 C53.4096811,16.396325 53.2187163,15.625496 53.2819649,14.771554 C53.3376291,14.0188878 53.4084622,13.2675293 53.4687312,12.515299 C53.6013231,10.8601599 53.5566292,9.23335467 52.7803097,7.72874877 C52.5344933,7.25215703 52.2083632,6.92755157 51.6580865,6.86608867 C51.2913257,6.82511341 50.8902995,6.80825833 50.5935591,6.48307166 C49.4415399,5.21966766 47.9600048,4.86963428 46.4001877,4.83301809 C44.4829548,4.78782906 42.7312247,5.53105061 40.996966,6.29534101 C39.9114459,6.77367637 39.1135921,7.59826725 38.6038107,8.74063438 C37.8590478,10.4097226 37.9121388,12.1741291 38.0584097,13.947835 C38.1590387,15.1675029 38.685885,16.4035901 37.9109198,17.5831546 C37.879905,17.6302326 37.8803113,17.7094224 37.8834263,17.7727742 C37.9504672,19.1502405 37.9701054,20.536425 38.4521223,21.8461805 C38.6292727,22.3277125 38.8926959,22.7288923 39.4168334,22.8124412 C39.7971379,22.8731775 39.9644014,23.1094392 39.9813309,23.5087301 C39.9941974,23.8099418 40.0226389,24.1110083 40.0563625,24.4106218 C40.1867874,25.5704252 40.0647595,26.815957 41.0298769,27.6951816 C41.1158788,27.7734995 41.1573223,27.9137163 41.2072982,28.0309753 C41.3472036,28.3596492 41.3434114,28.6245354 40.931144,28.6902121 C40.5940437,28.7438287 40.4183831,28.9818339 40.2856558,29.2980119 C40.1122976,29.7109612 39.9031843,30.1064742 39.7218354,30.5156456 C39.5804402,30.8347296 39.4153436,31.1196675 39.2180133,31.3608694 L39.6035998,31.5320356 C40.6964333,32.0183626 41.728727,32.477518 42.7877016,32.8563213 C43.4207297,33.0825571 44.2508174,33.4163166 45.0527343,33.9925857 C46.6768836,35.1596543 47.4710806,36.7171502 47.4127077,38.6214829 C47.4071548,38.8009313 47.399435,38.9806703 47.3917151,39.1608453 C47.3601585,39.8937504 47.3329359,40.5266874 47.4704035,41.0236215 L47.5543738,41.3271581 L47.5543738,41.6436266 C47.5543738,41.9223166 47.5523423,42.2010065 47.5503107,42.4798417 C47.545435,43.1427111 47.5406948,43.7688189 47.5637189,44.385918 C47.5681883,44.5063737 47.5757727,44.7230195 47.5431326,44.9873245 C50.8814961,44.9873245 54.2199951,44.9871792 57.5583586,44.9871792 C60.3553842,44.9871792 63.1526806,44.9771533 65.9495707,44.9992393 C66.3203947,45.0021453 66.3924466,44.9072629 66.3783613,44.5294768 Z M45.5228329,41.6436557 C45.2412613,40.6258127 45.3506936,39.5770203 45.3822502,38.5500232 C45.4215267,37.2674393 44.8325153,36.4576693 43.922114,35.8033728 C43.3738689,35.4094581 42.7657609,35.1457343 42.1453283,34.9240029 C40.8386412,34.4568558 39.5751582,33.8765182 38.303549,33.3136169 C36.3246927,32.4374437 34.4298067,31.2923158 32.351134,30.7442353 C30.9939292,30.3863556 30.1581533,29.6380484 29.6472885,28.3245151 C29.5259378,28.0126963 29.3491937,27.7248523 29.2373235,27.4098368 C29.1006685,27.0243496 28.8475385,26.8623375 28.4863305,26.7799511 C27.6574618,26.5906221 27.5764711,26.3896689 27.9892802,25.5783006 C28.1285085,25.3046962 28.3118889,25.0543403 28.493915,24.8095058 C28.8728651,24.3000757 29.0716852,23.7286016 29.0998559,23.0759034 C29.1205776,22.5937902 29.1780025,22.1134206 29.2208003,21.6324698 C29.2856742,20.9021801 29.5994795,20.3549715 30.2316951,20.0348704 C30.5193613,19.8892774 30.8204356,19.7284277 30.9560071,19.4070189 C31.7133656,17.6118083 32.0626552,15.7346471 31.3506678,13.8635886 C31.0054413,12.9563207 30.7914523,12.0926435 30.8622854,11.1361181 C30.9247214,10.2929285 31.0039515,9.45133727 31.0715341,8.6085836 C31.2201075,6.75423492 31.1699961,4.93185275 30.3003612,3.24620011 C30.0250197,2.71250455 29.6596132,2.34881275 29.0431082,2.27993943 C28.6321952,2.23402389 28.1829538,2.21513458 27.8505937,1.85071627 C26.5600234,0.435471313 24.9003899,0.0433002507 23.1528584,0.00217968365 C21.0051133,-0.0482402343 19.0427802,0.784342272 17.0998144,1.64046376 C15.883734,2.17633885 14.9899915,3.10002594 14.4188576,4.3798491 C13.5845714,6.24959983 13.6440279,8.2262931 13.8079055,10.2133028 C13.9205883,11.5797262 14.5109541,12.9644577 13.6426735,14.2858373 C13.6080019,14.3385821 13.6084082,14.4273618 13.6117941,14.4982693 C13.6870965,16.0413804 13.7090372,17.5942267 14.2490208,19.0616352 C14.4474346,19.6009975 14.7425498,20.0504177 15.3296651,20.1441377 C15.755747,20.2119939 15.943055,20.4767348 15.9621515,20.9239755 C15.9765077,21.2615129 16.0083352,21.5987596 16.0461219,21.9344081 C16.1922574,23.2337018 16.0556024,24.6290403 17.1367885,25.614045 C17.2330835,25.7018076 17.2795381,25.8587341 17.3354732,25.9902328 C17.4921727,26.3584289 17.4879742,26.6551364 17.0261372,26.7286593 C16.6485415,26.7886692 16.4516174,27.055299 16.3029086,27.4095462 C16.1088288,27.8721889 15.8745244,28.3152158 15.6713703,28.77379 C15.2299842,29.7698377 14.5872046,30.47499 13.5081855,30.6242155 C13.1769089,30.6701311 12.8465803,30.7857918 12.5346711,30.9199058 C9.1449773,32.3769979 5.82449135,34.0117947 2.39484393,35.3702264 C0.912089915,35.9575386 -0.00210350874,37.0916235 0.150126626,38.9869474 C0.220282506,39.859924 0.289084026,40.7724228 0.0163157958,41.6436557 C0.0163157958,42.5626931 0.0486850148,43.4836194 0.00331393377,44.4000414 C-0.0210645575,44.891454 0.0818668501,45.0008667 0.553319785,44.9999948 C12.2532349,44.9816868 23.9530146,44.9856099 35.6529298,44.9856099 C38.786514,44.9856099 41.9200982,44.9744216 45.0534115,44.999123 C45.4687939,45.002465 45.5495138,44.8961037 45.5338032,44.4728379 C45.4987253,43.5311333 45.5228329,42.5869586 45.5228329,41.6436557 Z" id="Combined-Shape"></path>
            </g>
        </g>
    </g>
</svg>