<?xml version="1.0" encoding="UTF-8" standalone="no"?>
<svg width="50px" height="45px" viewBox="0 0 50 45" version="1.1" xmlns="http://www.w3.org/2000/svg" xmlns:xlink="http://www.w3.org/1999/xlink">
    <!-- Generator: sketchtool 39.1 (31720) - http://www.bohemiancoding.com/sketch -->
    <title>F9D0F89B-9691-4A5B-AF6F-5B7A7073BD16</title>
    <desc>Created with sketchtool.</desc>
    <defs></defs>
    <g id="ABOUT" stroke="none" stroke-width="1" fill="none" fill-rule="evenodd">
        <g id="About-Partners" transform="translate(-615.000000, -1575.000000)" fill="#FFFFFF">
            <path d="M651.725784,1613.57143 L659.708755,1613.57143 C662.341218,1613.57143 664.5,1611.41921 664.5,1608.76432 L664.5,1579.80711 C664.5,1577.15642 662.354887,1575 659.708755,1575 L619.791245,1575 C617.158782,1575 615,1577.15222 615,1579.80711 L615,1608.76432 C615,1611.41501 617.145113,1613.57143 619.791245,1613.57143 L627.774216,1613.57143 C627.774201,1613.57638 627.774194,1613.58134 627.774194,1613.5863 L627.774194,1615.1637 C627.774194,1617.83089 629.918481,1620 632.563594,1620 L646.936406,1620 C649.579182,1620 651.725806,1617.83471 651.725806,1615.1637 L651.725806,1613.5863 C651.725806,1613.58134 651.725799,1613.57638 651.725784,1613.57143 L651.725784,1613.57143 Z M619.790323,1581.41796 C619.790323,1580.53622 620.517275,1579.82143 621.379843,1579.82143 L658.120157,1579.82143 C658.998025,1579.82143 659.709677,1580.53652 659.709677,1581.41796 L659.709677,1607.15347 C659.709677,1608.03521 658.982725,1608.75 658.120157,1608.75 L621.379843,1608.75 C620.501975,1608.75 619.790323,1608.03491 619.790323,1607.15347 L619.790323,1581.41796 L619.790323,1581.41796 Z" id="icon-step2"></path>
        </g>
    </g>
</svg>