<?xml version="1.0" encoding="UTF-8" standalone="no"?>
<svg width="45px" height="45px" viewBox="0 0 45 45" version="1.1" xmlns="http://www.w3.org/2000/svg" xmlns:xlink="http://www.w3.org/1999/xlink">
    <!-- Generator: sketchtool 39.1 (31720) - http://www.bohemiancoding.com/sketch -->
    <title>0DB683A0-543A-4ABA-9C3A-6525EB14121F</title>
    <desc>Created with sketchtool.</desc>
    <defs></defs>
    <g id="ABOUT" stroke="none" stroke-width="1" fill="none" fill-rule="evenodd">
        <g id="About-Partners" transform="translate(-258.000000, -1575.000000)" fill="#FFFFFF">
            <path d="M263.987512,1620 C260.683995,1620 258,1617.33542 258,1614.03425 C258,1610.75043 260.683995,1608.05583 263.987512,1608.05583 C267.303976,1608.05583 269.983013,1610.75043 269.983013,1614.03425 C269.982875,1617.33556 267.303838,1620 263.987512,1620 Z M279.029429,1619.98733 C279.029429,1614.35338 276.838929,1609.05012 272.868511,1605.08163 C268.893961,1601.10474 263.614532,1598.90956 258,1598.90956 L258,1590.28832 C274.366216,1590.28832 287.690056,1603.60996 287.690056,1619.98719 L279.029429,1619.98719 L279.029429,1619.98733 Z M294.318438,1619.98265 C294.318438,1599.93828 278.020675,1583.62537 258,1583.62537 L258,1575 C282.792008,1575 302.96598,1595.18637 302.96598,1619.98292 L294.318438,1619.98265 Z" id="icon-step1"></path>
        </g>
    </g>
</svg>