<svg width="15" height="15" viewBox="0 0 15 15" xmlns="http://www.w3.org/2000/svg"><title>D2BB0788-AEE8-49D4-A852-32FB9CC1402D</title><g fill="none" fill-rule="evenodd"><circle fill="#284A8E" cx="7.5" cy="7.5" r="7.5"/><path d="M8.729 11.361l-.088.375c-.36.145-.647.245-.862.302a2.218 2.218 0 0 1-.55.085c-.313 0-.547-.081-.704-.243a.832.832 0 0 1-.234-.6c0-.09.008-.184.023-.282.016-.098.041-.22.077-.37l.62-2.49c.032-.136.062-.283.092-.439.029-.156.043-.289.043-.398 0-.219-.036-.364-.108-.437-.072-.072-.22-.108-.442-.108-.086 0-.2.014-.343.04a5.29 5.29 0 0 0-.325.071l.088-.375a5.76 5.76 0 0 1 .82-.304c.242-.067.434-.1.574-.1.32 0 .553.076.697.228.145.153.217.358.217.616a2.978 2.978 0 0 1-.094.65l-.626 2.49c-.04.153-.074.302-.103.449-.03.146-.044.266-.044.36 0 .223.05.375.15.457.1.082.26.123.483.123.074 0 .18-.01.32-.03a1.63 1.63 0 0 0 .319-.07zm.416-7.488a.86.86 0 0 1-.217.583.686.686 0 0 1-.54.25c-.199 0-.37-.08-.515-.238a.813.813 0 0 1 0-1.104.672.672 0 0 1 .516-.241c.222 0 .404.075.545.226.14.15.21.325.21.524z" fill="#FFF"/></g></svg>