<svg width="15" height="15" viewBox="0 0 15 15" xmlns="http://www.w3.org/2000/svg" xmlns:xlink="http://www.w3.org/1999/xlink"><title>F2EF4B8D-7224-41C8-97BF-6ED46F9C517D</title><defs><circle id="a" cx="7.5" cy="7.5" r="7.5"/><mask id="b" x="0" y="0" width="15" height="15" fill="#fff"><use xlink:href="#a"/></mask></defs><g fill="none" fill-rule="evenodd"><use stroke="#FFF" mask="url(#b)" stroke-width="2" xlink:href="#a"/><path d="M9.178 11.162l-.13.527c-.386.152-.694.268-.925.348-.23.08-.498.12-.803.12-.468 0-.833-.114-1.092-.343-.26-.228-.39-.518-.39-.87 0-.136.01-.276.03-.42.02-.14.05-.302.093-.482l.48-1.71c.044-.165.08-.32.11-.467.03-.146.044-.28.044-.4 0-.22-.045-.372-.135-.458-.09-.086-.263-.13-.517-.13-.125 0-.253.02-.383.06-.13.04-.244.076-.337.11l.13-.527c.315-.127.618-.238.907-.33.29-.09.562-.137.82-.137.465 0 .823.112 1.075.337.252.224.378.516.378.876 0 .074-.01.205-.026.392-.018.188-.05.36-.097.516L7.93 9.88c-.04.136-.075.292-.106.468-.03.175-.047.308-.047.398 0 .227.05.38.153.463.1.08.277.122.527.122.117 0 .25-.02.398-.06.15-.043.256-.08.323-.11zM9.3 4.008c0 .297-.112.55-.336.76-.225.208-.495.312-.812.312-.316 0-.588-.104-.814-.313-.227-.21-.34-.462-.34-.76 0-.296.113-.55.34-.76.226-.212.498-.317.814-.317.317 0 .587.105.812.316.224.21.337.465.337.762z" fill="#FFF"/></g></svg>