<?xml version="1.0" encoding="UTF-8" standalone="no"?>
<svg width="15px" height="15px" viewBox="0 0 15 15" version="1.1" xmlns="http://www.w3.org/2000/svg" xmlns:xlink="http://www.w3.org/1999/xlink">
    <!-- Generator: Sketch 39.1 (31720) - http://www.bohemiancoding.com/sketch -->
    <title>info_gray</title>
    <desc>Created with Sketch.</desc>
    <defs>
        <circle id="path-1" cx="7.5" cy="7.5" r="7.5"></circle>
    </defs>
    <g id="Page-1" stroke="none" stroke-width="1" fill="none" fill-rule="evenodd">
        <g id="info_black">
            <g id="Group">
                <g id="Clipped">
                    <mask id="mask-2" fill="white">
                        <use xlink:href="#path-1"></use>
                    </mask>
                    <g id="a"></g>
                    <g id="a-link" mask="url(#mask-2)" stroke-width="2" stroke="#4A4A4A">
                        <circle id="a" cx="7.5" cy="7.5" r="7.5"></circle>
                    </g>
                </g>
                <path d="M9.178,11.162 L9.048,11.689 C8.662,11.841 8.354,11.957 8.123,12.037 C7.893,12.117 7.625,12.157 7.32,12.157 C6.852,12.157 6.487,12.043 6.228,11.814 C5.968,11.586 5.838,11.296 5.838,10.944 C5.838,10.808 5.848,10.668 5.868,10.524 C5.888,10.384 5.918,10.222 5.961,10.042 L6.441,8.332 C6.485,8.167 6.521,8.012 6.551,7.865 C6.581,7.719 6.595,7.585 6.595,7.465 C6.595,7.245 6.55,7.093 6.46,7.007 C6.37,6.921 6.197,6.877 5.943,6.877 C5.818,6.877 5.69,6.897 5.56,6.937 C5.43,6.977 5.316,7.013 5.223,7.047 L5.353,6.52 C5.668,6.393 5.971,6.282 6.26,6.19 C6.55,6.1 6.822,6.053 7.08,6.053 C7.545,6.053 7.903,6.165 8.155,6.39 C8.407,6.614 8.533,6.906 8.533,7.266 C8.533,7.34 8.523,7.471 8.507,7.658 C8.489,7.846 8.457,8.018 8.41,8.174 L7.93,9.88 C7.89,10.016 7.855,10.172 7.824,10.348 C7.794,10.523 7.777,10.656 7.777,10.746 C7.777,10.973 7.827,11.126 7.93,11.209 C8.03,11.289 8.207,11.331 8.457,11.331 C8.574,11.331 8.707,11.311 8.855,11.271 C9.005,11.228 9.111,11.191 9.178,11.161 L9.178,11.162 Z M9.3,4.008 C9.3,4.305 9.188,4.558 8.964,4.768 C8.739,4.976 8.469,5.08 8.152,5.08 C7.836,5.08 7.564,4.976 7.338,4.767 C7.111,4.557 6.998,4.305 6.998,4.007 C6.998,3.711 7.111,3.457 7.338,3.247 C7.564,3.035 7.836,2.93 8.152,2.93 C8.469,2.93 8.739,3.035 8.964,3.246 C9.188,3.456 9.301,3.711 9.301,4.008 L9.3,4.008 Z" id="Shape" fill="#4A4A4A"></path>
            </g>
        </g>
    </g>
</svg>