<svg version="1.1" id="Layer_1" xmlns="http://www.w3.org/2000/svg" xmlns:xlink="http://www.w3.org/1999/xlink" x="0px" y="0px"
	 viewBox="0 0 22 30" style="enable-background:new 0 0 22 30;" xml:space="preserve">
<g transform="translate(1 1)">
	<g>
		<g transform="translate(2.8 6.533)">
			<g>
				<path d="M16.3,22H3.5l-2.7-3.3c-0.9-1.1-1.3-2.4-1.3-3.8v-2.7c0-1.3,1.1-2.4,2.4-2.4h1.4V1.9c0-1.3,1.1-2.4,2.4-2.4
					C6.9-0.5,8,0.6,8,1.9V7l7.2,1.3c1.8,0.3,2.9,2,2.7,3.7L16.3,22z M4,21h11.5l1.4-9c0.2-1.2-0.6-2.4-1.9-2.6L7,7.9v-6
					c0-0.8-0.6-1.4-1.4-1.4S4.2,1.1,4.2,1.9v11.7h-1v-2.8H1.9c-0.8,0-1.4,0.6-1.4,1.4v2.7c0,1.2,0.4,2.3,1.1,3.2L4,21z"/>
			</g>
		</g>
		<g>
			<path d="M17.3,8.9h-2.9v-1h2.9V8.9z M2.4,8.9h-2.9v-1h2.9V8.9z M13,4.5l-0.7-0.7l2-2L15,2.5L13,4.5z M3.8,4.5l-2-2l0.7-0.7l2,2
				L3.8,4.5z M8.9,2.4h-1v-2.9h1V2.4z"/>
		</g>
	</g>
</g>
</svg>