<?xml version="1.0" encoding="UTF-8"?>
<svg width="15px" height="15px" viewBox="0 0 15 15" version="1.1" xmlns="http://www.w3.org/2000/svg" xmlns:xlink="http://www.w3.org/1999/xlink">
    <!-- Generator: Sketch 51.2 (57519) - http://www.bohemiancoding.com/sketch -->
    <title>Fit map to vessel tracks</title>
    <defs></defs>
    <g id="Page-1" stroke="none" stroke-width="1" fill="none" fill-rule="evenodd">
        <g id="new---monthly---two-vessels" transform="translate(-1183.000000, -141.000000)" fill="#46A4BC" fill-rule="nonzero">
            <g id="Group-13" transform="translate(960.000000, 0.000000)">
                <g id="Group-11" transform="translate(25.000000, 141.000000)">
                    <g id="locate" transform="translate(198.000000, 0.000000)">
                        <rect id="Rectangle-13" x="5" y="5" width="5" height="5" rx="2.5"></rect>
                        <path d="M7.5,3 C5.01471863,3 3,5.01471863 3,7.5 C3,9.98528137 5.01471863,12 7.5,12 C9.98528137,12 12,9.98528137 12,7.5 C12,5.01471863 9.98528137,3 7.5,3 Z M7.5,2 C10.5375661,2 13,4.46243388 13,7.5 C13,10.5375661 10.5375661,13 7.5,13 C4.46243388,13 2,10.5375661 2,7.5 C2,4.46243388 4.46243388,2 7.5,2 Z" id="Rectangle-13-Copy"></path>
                        <g id="Group-13" transform="translate(7.000000, 0.000000)">
                            <polygon id="Line-2" points="1 3 0 3 0 0 1 0"></polygon>
                            <polygon id="Line-2-Copy" points="1 15 0 15 0 12 1 12"></polygon>
                        </g>
                        <g id="Group-13-Copy" transform="translate(7.500000, 7.500000) rotate(90.000000) translate(-7.500000, -7.500000) translate(7.000000, 0.000000)">
                            <polygon id="Line-2" points="1 3 1.42108547e-14 3 1.42108547e-14 0 1 0"></polygon>
                            <polygon id="Line-2-Copy" points="1 15 1.42108547e-14 15 1.42108547e-14 12 1 12"></polygon>
                        </g>
                    </g>
                </g>
            </g>
        </g>
    </g>
</svg>