<svg viewBox="0 0 29 24" xmlns="http://www.w3.org/2000/svg"><title>twitter</title><path d="M18.167.283c-2.62.953-4.274 3.41-4.086 6.101l.063 1.038-1.048-.127c-3.813-.487-7.145-2.14-9.974-4.915L1.74 1.003 1.383 2.02c-.754 2.267-.272 4.661 1.3 6.271.837.89.649 1.017-.797.487-.503-.17-.943-.296-.985-.233-.147.149.356 2.076.754 2.839.545 1.06 1.656 2.097 2.871 2.712l1.027.487-1.216.021c-1.173 0-1.215.021-1.09.466.42 1.377 2.075 2.839 3.92 3.475l1.298.444-1.131.678a11.785 11.785 0 0 1-5.616 1.568c-.943.021-1.718.106-1.718.17 0 .211 2.556 1.398 4.044 1.864 4.463 1.377 9.765.784 13.746-1.568 2.829-1.673 5.658-5 6.978-8.22.712-1.716 1.425-4.851 1.425-6.355 0-.975.062-1.102 1.236-2.267.691-.678 1.341-1.42 1.467-1.631.21-.403.188-.403-.88-.043-1.781.636-2.033.551-1.153-.402.65-.678 1.425-1.907 1.425-2.267 0-.063-.314.042-.67.233-.378.212-1.216.53-1.844.72l-1.132.36-1.027-.699c-.565-.38-1.362-.805-1.78-.932-1.07-.296-2.704-.254-3.668.085z" fill-rule="evenodd"/></svg>
