<svg width="45" height="45" viewBox="0 0 45 45" xmlns="http://www.w3.org/2000/svg"><title>ABE64F88-E507-49F9-BEB6-9457E5CA7BCC</title><path d="M5.988 45C2.684 45 0 42.335 0 39.034c0-3.284 2.684-5.978 5.988-5.978 3.316 0 5.995 2.694 5.995 5.978 0 3.302-2.68 5.966-5.995 5.966zm15.041-.013c0-5.634-2.19-10.937-6.16-14.905C10.894 26.105 5.615 23.91 0 23.91v-8.622c16.366 0 29.69 13.322 29.69 29.7h-8.66zm15.29-.004C36.318 24.938 20.02 8.625 0 8.625V0c24.792 0 44.966 20.186 44.966 44.983h-8.648z" fill="#FFF" fill-rule="evenodd"/></svg>