<svg width="67" height="45" viewBox="0 0 67 45" xmlns="http://www.w3.org/2000/svg"><title>82F20025-C438-40D2-907D-7077375A1A0C</title><path d="M66.378 44.53c-.03-.841-.01-1.684-.01-2.526-.25-.909-.153-1.845-.125-2.762.035-1.144-.49-1.867-1.303-2.451-.49-.352-1.032-.587-1.586-.785-1.167-.417-2.295-.935-3.43-1.438-1.766-.782-3.458-1.804-5.313-2.293-1.211-.32-1.958-.988-2.414-2.16-.108-.279-.266-.536-.366-.817-.122-.344-.347-.488-.67-.562-.74-.169-.812-.348-.444-1.073.125-.244.288-.467.45-.686.34-.455.517-.965.542-1.548.018-.43.07-.859.108-1.288.058-.652.338-1.14.902-1.426.257-.13.526-.274.647-.56.676-1.603.987-3.279.352-4.949-.308-.81-.5-1.58-.436-2.434.056-.753.126-1.504.187-2.257.132-1.655.088-3.282-.689-4.786-.246-.477-.572-.801-1.122-.863-.367-.04-.768-.058-1.064-.383C49.442 5.22 47.96 4.87 46.4 4.833c-1.917-.045-3.669.698-5.403 1.462-1.086.479-1.883 1.303-2.393 2.446-.745 1.669-.692 3.433-.546 5.207.101 1.22.628 2.456-.147 3.635-.031.047-.03.126-.028.19.067 1.377.087 2.763.57 4.073.176.482.44.883.964.966.38.061.547.297.564.697.013.3.042.602.075.902.13 1.16.009 2.405.974 3.284.086.078.127.219.177.336.14.329.136.594-.276.66-.337.053-.513.29-.645.607-.174.413-.383.808-.564 1.218-.142.319-.307.604-.504.845l.386.171c1.092.486 2.125.946 3.184 1.324.633.227 1.463.56 2.265 1.137 1.624 1.167 2.418 2.724 2.36 4.628l-.021.54c-.032.733-.06 1.366.078 1.863l.084.303v.317c0 .278-.002.557-.004.836-.005.663-.01 1.289.014 1.906.004.12.012.337-.02.601h10.014c2.797 0 5.595-.01 8.392.012.37.003.442-.092.428-.47zm-20.855-2.886c-.282-1.018-.172-2.067-.14-3.094.039-1.283-.55-2.092-1.46-2.747-.55-.394-1.157-.657-1.778-.879-1.306-.467-2.57-1.047-3.841-1.61-1.98-.877-3.874-2.022-5.953-2.57-1.357-.358-2.193-1.106-2.704-2.42-.121-.311-.298-.6-.41-.914-.136-.386-.39-.548-.75-.63-.83-.19-.91-.39-.498-1.202.14-.273.323-.524.505-.768.379-.51.578-1.081.606-1.734.02-.482.078-.963.12-1.444.066-.73.38-1.277 1.012-1.597.287-.146.588-.307.724-.628.757-1.795 1.107-3.672.395-5.543-.346-.908-.56-1.771-.489-2.728.063-.843.142-1.685.21-2.527.148-1.855.098-3.677-.772-5.363-.275-.533-.64-.897-1.257-.966-.41-.046-.86-.065-1.192-.43C26.56.436 24.9.044 23.153.003c-2.148-.05-4.11.782-6.053 1.638-1.216.536-2.11 1.46-2.681 2.74-.834 1.87-.775 3.846-.611 5.833.113 1.367.703 2.751-.165 4.073-.035.053-.035.141-.031.212.075 1.543.097 3.096.637 4.564.198.539.494.988 1.08 1.082.427.068.614.333.633.78.015.338.046.675.084 1.01.146 1.3.01 2.695 1.09 3.68.097.088.144.245.2.376.156.368.152.665-.31.739-.377.06-.574.326-.723.68-.194.463-.428.906-.632 1.365-.441.996-1.084 1.701-2.163 1.85a3.85 3.85 0 0 0-.973.296c-3.39 1.457-6.71 3.092-10.14 4.45-1.483.588-2.397 1.722-2.245 3.617.07.873.14 1.785-.134 2.657 0 .919.033 1.84-.013 2.756-.024.491.079.6.55.6 11.7-.018 23.4-.014 35.1-.014 3.134 0 6.267-.012 9.4.013.416.003.497-.103.48-.526-.034-.942-.01-1.886-.01-2.83z" fill="#FFF" fill-rule="evenodd"/></svg>