<?xml version="1.0" encoding="UTF-8"?>
<svg width="8px" height="13px" viewBox="0 0 8 13" version="1.1" xmlns="http://www.w3.org/2000/svg" xmlns:xlink="http://www.w3.org/1999/xlink">
    <g id="Page-1" stroke="none" stroke-width="1" fill="none" fill-rule="evenodd">
        <g id="Artboard" transform="translate(-1164.000000, -196.000000)" fill="#000000" fill-rule="nonzero">
            <g id="Group-4" transform="translate(989.000000, 191.000000)">
                <g id="Group-3" transform="translate(175.000000, 5.000000)">
                    <path d="M3,10 L5,10 L2.5,13 L0,10 L2,10 L2,0 L3,0 L3,10 Z" id="Combined-Shape"></path>
                    <path d="M4,0 L8,0 L8,1 L4,1 L4,0 Z M4,2 L6,2 L6,3 L4,3 L4,2 Z M4,4 L8,4 L8,5 L4,5 L4,4 Z M4,6 L6,6 L6,7 L4,7 L4,6 Z M4,8 L8,8 L8,9 L4,9 L4,8 Z" id="Combined-Shape" opacity="0.5"></path>
                </g>
            </g>
        </g>
    </g>
</svg>