<svg width="16" height="18" xmlns="http://www.w3.org/2000/svg"><path d="M13 12.398c.677 0 1.25.241 1.719.723.469.482.703 1.048.703 1.7a2.37 2.37 0 0 1-.723 1.738c-.482.481-1.048.722-1.699.722s-1.217-.24-1.7-.722a2.37 2.37 0 0 1-.722-1.739c0-.26.013-.442.04-.547l-5.9-3.437A2.5 2.5 0 0 1 3 11.5c-.677 0-1.263-.247-1.758-.742C.747 10.263.5 9.678.5 9c0-.677.247-1.263.742-1.758C1.737 6.747 2.322 6.5 3 6.5a2.5 2.5 0 0 1 1.719.664l5.86-3.398a3.29 3.29 0 0 1-.079-.586c0-.677.247-1.263.742-1.758C11.737.927 12.322.68 13 .68c.677 0 1.263.247 1.758.742.495.495.742 1.08.742 1.758 0 .677-.247 1.263-.742 1.757-.495.495-1.08.743-1.758.743-.625 0-1.198-.235-1.719-.703l-5.86 3.437c.053.26.079.456.079.586 0 .13-.026.326-.078.586l5.937 3.437A2.392 2.392 0 0 1 13 12.398z" fill="#FFF" fill-rule="evenodd"/></svg>