<?xml version="1.0" standalone="no"?>
<!DOCTYPE svg PUBLIC "-//W3C//DTD SVG 20010904//EN"
 "http://www.w3.org/TR/2001/REC-SVG-20010904/DTD/svg10.dtd">
<svg version="1.0" xmlns="http://www.w3.org/2000/svg"
 width="512.000000pt" height="512.000000pt" viewBox="0 0 512.000000 512.000000"
 preserveAspectRatio="xMidYMid meet">
<metadata>
Created by potrace 1.11, written by Peter Selinger 2001-2013
</metadata>
<g transform="translate(0.000000,512.000000) scale(0.100000,-0.100000)"
fill="#000000" stroke="none">
<path d="M2398 5013 c-21 -5 -49 -48 -44 -65 3 -7 7 -26 10 -41 4 -15 11 -25
16 -22 6 3 10 0 10 -8 0 -15 71 -67 90 -67 6 0 8 -5 4 -12 -4 -6 -3 -8 4 -5
12 8 42 -2 42 -14 0 -5 -6 -9 -14 -9 -18 0 -58 -49 -50 -61 3 -5 1 -9 -5 -9
-16 0 20 -63 53 -93 39 -35 106 -73 146 -82 16 -4 30 -11 30 -16 0 -5 3 -8 8
-8 4 1 9 0 12 -1 3 -1 13 -3 23 -5 10 -2 38 -13 63 -24 24 -12 51 -21 59 -21
8 0 15 -4 15 -10 0 -5 7 -10 16 -10 9 0 30 -6 47 -14 18 -8 61 -27 97 -42 36
-16 68 -33 72 -39 4 -5 8 -6 8 -2 0 10 140 -64 140 -75 0 -4 4 -7 8 -5 12 3
148 -85 193 -125 10 -10 21 -18 24 -18 3 0 32 -27 65 -59 33 -33 60 -56 60
-51 0 10 -70 113 -84 122 -7 5 -7 8 -1 8 6 0 3 5 -5 10 -8 5 -15 13 -15 17 0
5 -10 19 -22 33 -13 13 -23 29 -23 36 0 6 -7 15 -16 18 -9 4 -14 9 -11 12 3 3
-3 16 -14 28 -69 75 -99 113 -99 124 0 7 -4 10 -10 7 -5 -3 -10 -3 -10 2 0 12
-65 86 -140 162 -36 36 -63 70 -62 76 2 5 0 7 -4 3 -4 -4 -20 6 -36 22 -15 17
-32 30 -36 30 -4 1 -18 14 -32 30 -13 17 -28 30 -32 30 -5 0 -19 9 -31 21 -12
11 -48 38 -79 59 -31 21 -54 41 -50 45 4 5 -1 5 -10 2 -10 -3 -20 -2 -23 3 -9
14 -147 79 -183 86 -18 4 -30 10 -27 14 2 3 -1 7 -8 7 -7 1 -37 3 -67 6 -30 3
-63 3 -72 0z"/>
<path d="M3630 3953 c5 -2 8 -8 5 -12 -4 -7 33 -124 47 -146 3 -6 5 -25 4 -42
-1 -17 2 -30 6 -27 4 3 8 -5 7 -18 0 -13 2 -69 4 -125 2 -56 0 -126 -4 -155
-5 -29 -10 -63 -11 -75 -1 -13 -5 -23 -8 -23 -3 0 -7 -12 -8 -27 -1 -16 -6
-37 -11 -48 -10 -21 -23 -56 -25 -65 -3 -13 -52 -108 -69 -132 -10 -16 -16
-28 -13 -28 5 0 -2 -9 -49 -61 -8 -9 -15 -19 -15 -24 0 -5 -7 -15 -15 -24 -8
-9 -34 -36 -58 -61 -35 -37 -89 -85 -174 -155 -26 -21 -40 -31 -83 -60 -25
-16 -47 -32 -50 -35 -3 -3 -29 -21 -57 -39 -29 -18 -53 -37 -53 -42 0 -5 -5
-9 -11 -9 -6 0 -45 -27 -86 -60 -42 -33 -80 -60 -85 -60 -5 0 -6 -4 -3 -10 3
-5 1 -10 -4 -10 -6 0 -19 -8 -30 -17 -10 -10 -42 -38 -71 -63 -30 -25 -66 -57
-82 -73 -16 -15 -33 -27 -39 -27 -6 0 -8 -3 -6 -7 5 -10 -30 -43 -37 -35 -3 3
-6 -2 -6 -11 0 -9 -7 -17 -15 -17 -8 0 -15 -4 -15 -9 0 -5 -13 -23 -30 -41
-16 -18 -30 -28 -30 -24 0 5 -8 -4 -19 -21 -10 -16 -34 -47 -54 -67 -20 -21
-34 -38 -31 -38 5 0 -7 -15 -36 -48 -9 -9 -29 -37 -45 -62 -17 -25 -33 -47
-37 -50 -3 -3 -10 -18 -13 -33 -4 -15 -11 -27 -15 -27 -4 0 -11 -11 -14 -25
-4 -14 -10 -25 -16 -25 -16 0 0 -54 21 -72 12 -10 32 -18 45 -18 13 0 24 -3
24 -8 0 -13 226 -2 249 13 13 7 65 18 98 19 17 1 29 4 26 9 -2 4 8 7 22 7 14
0 24 4 21 9 -3 5 14 12 39 15 25 4 45 12 45 17 0 6 5 7 10 4 6 -4 16 -2 23 3
7 5 26 12 42 16 17 4 53 18 80 31 28 12 82 38 120 56 39 18 72 36 75 40 3 4
18 11 33 14 15 4 27 11 27 16 0 5 6 9 14 9 7 0 19 7 26 15 7 8 16 12 21 9 5
-3 9 -1 9 5 0 5 10 13 22 17 22 7 34 15 69 47 10 9 22 17 25 17 8 0 78 53 82
63 2 4 8 5 13 1 5 -3 9 2 9 10 0 9 4 16 8 16 5 0 25 16 45 35 21 20 37 33 37
29 0 -4 13 9 29 29 15 20 31 34 35 30 3 -3 6 -1 6 5 0 6 15 27 33 47 44 47 57
63 59 72 2 8 23 35 44 57 6 7 15 22 18 34 4 12 12 20 17 16 5 -3 9 -2 8 3 -3
13 22 73 31 73 4 0 11 16 14 35 4 20 11 33 17 30 5 -4 9 0 10 7 1 29 10 62 17
68 8 6 12 18 25 90 6 30 13 57 17 60 3 3 5 12 5 20 -1 8 2 20 6 25 9 14 9 345
0 345 -4 0 -5 14 -3 31 4 25 2 30 -9 24 -12 -8 -12 -6 0 8 7 9 9 17 4 17 -5 0
-10 6 -10 13 -2 25 -15 91 -23 113 -5 12 -6 25 -3 28 4 3 1 6 -5 6 -6 0 -9 6
-6 14 3 8 1 17 -5 21 -6 3 -11 15 -11 26 0 10 -4 27 -9 37 -5 9 -21 49 -37 87
-15 39 -52 120 -83 180 -30 61 -54 114 -53 118 2 5 -2 6 -8 2 -5 -3 -10 1 -10
9 0 9 -5 16 -11 16 -6 0 -8 7 -5 16 3 9 2 12 -5 9 -6 -4 -9 0 -7 10 2 10 -3
19 -10 21 -7 1 -8 0 -2 -3z"/>
<path d="M2870 3902 c0 -4 -26 -8 -58 -10 -69 -3 -83 -5 -99 -15 -8 -5 -13 -3
-13 4 0 8 -4 8 -13 1 -7 -6 -33 -16 -57 -22 -49 -12 -57 -14 -80 -23 -28 -10
-55 -18 -58 -17 -1 0 -35 -18 -76 -39 -40 -22 -76 -37 -80 -34 -3 4 -6 1 -6
-5 0 -6 -15 -19 -32 -28 -18 -9 -35 -20 -38 -23 -3 -4 -21 -17 -40 -29 -19
-11 -47 -33 -62 -47 -16 -14 -28 -23 -28 -21 0 3 -39 -32 -87 -79 -48 -47 -91
-85 -95 -85 -4 0 -8 -6 -8 -12 0 -7 -14 -26 -31 -43 -17 -16 -45 -49 -62 -72
-17 -24 -34 -43 -39 -43 -4 0 -8 -6 -8 -13 0 -7 -11 -24 -25 -39 -14 -15 -25
-31 -25 -37 0 -5 -3 -11 -7 -13 -12 -5 -53 -66 -53 -78 0 -5 -5 -10 -11 -10
-5 0 -7 -4 -4 -10 3 -5 1 -10 -5 -10 -6 0 -16 -13 -21 -30 -6 -16 -15 -30 -19
-30 -4 0 -11 -11 -14 -25 -4 -14 -11 -25 -17 -25 -6 0 -7 -4 -4 -10 3 -5 1
-10 -4 -10 -6 0 -11 -4 -11 -10 0 -19 26 1 44 35 11 19 23 35 28 35 4 0 8 5 8
10 0 6 16 26 35 46 19 19 35 39 35 45 0 6 4 8 9 4 5 -3 12 4 16 15 3 11 10 20
15 20 4 0 24 15 42 33 70 66 109 98 153 126 24 15 42 31 38 35 -3 3 0 6 7 6 7
0 28 11 46 25 18 14 37 25 43 25 6 0 11 4 11 9 0 5 16 15 34 22 19 7 33 16 31
20 -3 4 12 14 33 23 44 19 140 72 159 87 7 6 13 8 13 4 0 -5 9 0 20 10 11 10
20 15 20 10 0 -4 6 -2 13 4 8 6 17 8 20 4 4 -3 7 -2 7 4 0 6 21 20 48 31 26
11 70 31 97 43 28 13 52 24 55 24 3 1 13 5 23 8 9 4 25 10 35 14 9 3 20 5 25
5 4 -1 7 2 7 7 0 5 12 12 28 16 15 3 46 15 69 26 23 11 51 21 62 22 11 0 17 5
15 9 -3 4 2 8 10 8 20 0 150 53 154 63 2 4 9 7 17 7 15 0 40 28 32 36 -3 3
-32 7 -65 9 -33 1 -65 6 -70 9 -6 4 -13 2 -16 -2 -5 -9 -77 -6 -103 3 -7 2
-13 1 -13 -3z"/>
<path d="M1575 2879 c-4 -6 -5 -12 -2 -15 2 -3 7 2 10 11 7 17 1 20 -8 4z"/>
<path d="M1515 2800 c-3 -5 -1 -10 4 -10 6 0 11 5 11 10 0 6 -2 10 -4 10 -3 0
-8 -4 -11 -10z"/>
<path d="M1495 2760 c-3 -5 -3 -10 2 -10 4 0 4 -4 -2 -8 -10 -7 -44 -67 -74
-129 -8 -18 -19 -33 -23 -33 -4 0 -5 -7 -2 -15 4 -8 1 -15 -4 -15 -6 0 -14
-10 -18 -22 -3 -12 -22 -54 -40 -94 -19 -39 -34 -77 -34 -83 0 -6 -4 -11 -8
-11 -5 0 -9 -6 -10 -12 0 -7 -19 -71 -42 -143 -23 -71 -43 -150 -46 -175 -3
-24 -9 -49 -14 -54 -14 -14 -12 -29 3 -20 8 5 8 3 -2 -9 -7 -9 -11 -26 -8 -37
3 -11 1 -20 -3 -20 -5 0 -7 -84 -5 -187 5 -205 5 -213 15 -213 3 0 7 -16 8
-35 2 -20 7 -47 12 -60 5 -14 7 -25 4 -25 -4 0 -1 -6 5 -13 6 -8 8 -17 4 -20
-3 -4 -1 -7 6 -7 7 0 10 -4 7 -9 -3 -4 3 -24 13 -44 10 -19 24 -56 31 -81 7
-25 16 -43 20 -41 5 3 11 -8 15 -25 4 -16 14 -34 23 -39 9 -5 16 -13 15 -18
-4 -14 8 -43 18 -43 5 0 9 -7 9 -15 0 -8 4 -15 10 -15 5 0 19 -18 30 -39 11
-22 28 -45 37 -50 10 -6 14 -11 10 -11 -4 0 2 -11 15 -24 13 -13 39 -42 58
-64 19 -23 41 -42 48 -42 6 0 12 -6 12 -14 0 -8 9 -18 20 -21 11 -4 18 -11 15
-16 -4 -5 -2 -9 2 -9 5 0 24 -16 43 -35 19 -19 38 -35 43 -35 4 0 15 -8 25
-18 32 -29 57 -48 75 -55 9 -3 17 -11 17 -17 0 -5 5 -10 12 -10 6 0 26 -11 44
-25 18 -14 37 -25 43 -25 6 0 11 -3 11 -8 0 -8 22 -21 82 -48 21 -9 35 -21 32
-26 -3 -5 -2 -8 3 -7 15 2 53 -13 53 -22 0 -5 3 -8 8 -7 10 2 66 -25 74 -37 4
-5 8 -7 8 -3 0 4 37 -10 83 -31 87 -41 157 -66 170 -63 4 1 7 -2 7 -7 0 -10
57 -25 80 -21 8 1 12 -2 7 -6 -7 -7 78 -35 111 -37 6 0 12 -3 12 -7 0 -5 18
-9 58 -12 6 -1 12 -4 12 -7 0 -3 10 -7 23 -7 12 -1 38 -6 57 -10 31 -8 244
-10 278 -3 6 1 12 6 12 11 0 5 5 6 10 3 6 -3 13 1 16 9 3 9 11 13 17 9 5 -3 7
-1 3 5 -3 6 -2 13 4 17 11 7 10 55 -1 55 -4 0 -10 10 -14 23 -4 12 -8 24 -9
27 -1 3 -15 25 -31 50 -16 25 -28 48 -27 53 1 4 -2 7 -8 7 -5 0 -10 7 -10 15
0 8 -4 15 -8 15 -4 0 -15 12 -24 28 -9 15 -26 37 -38 49 -11 13 -18 23 -15 23
3 0 -7 13 -22 28 -49 50 -103 115 -103 124 0 5 -5 6 -10 3 -6 -3 -10 -1 -10 5
0 15 -26 41 -34 33 -3 -4 -6 -1 -6 6 0 15 -86 101 -101 101 -5 0 -8 4 -4 9 3
5 -4 12 -15 16 -11 3 -20 13 -20 21 0 8 -4 14 -9 14 -4 0 -19 10 -33 23 -66
60 -101 88 -199 167 -59 47 -121 96 -139 110 -18 14 -39 31 -46 38 -7 6 -15
12 -18 12 -14 0 -184 129 -178 135 4 3 2 5 -4 3 -14 -4 -122 74 -181 130 -23
22 -44 37 -47 34 -3 -3 -6 -1 -6 5 0 6 -21 33 -47 61 -27 28 -57 63 -68 78
-11 16 -29 38 -41 50 -11 11 -19 25 -17 31 2 5 -6 18 -17 28 -11 10 -20 23
-20 28 0 6 -7 18 -15 27 -9 10 -17 26 -20 36 -2 11 -13 39 -25 63 -12 25 -24
52 -25 60 -2 9 -4 17 -5 19 -2 1 -3 6 -4 11 0 5 -4 13 -8 17 -5 4 -8 23 -8 41
0 19 -4 32 -9 29 -5 -3 -9 4 -8 17 0 12 -4 47 -8 77 -16 109 -5 340 16 366 7
8 6 14 -3 17 -10 4 -10 7 -1 14 11 8 24 56 26 91 0 6 5 12 10 12 5 0 7 9 4 20
-3 11 -1 18 4 14 5 -3 9 4 9 15 0 10 6 22 13 24 7 3 6 6 -5 6 -9 1 -20 -3 -23
-9z"/>
<path d="M3615 1952 c-16 -2 -35 -8 -41 -13 -7 -5 -26 -11 -43 -12 -17 -1 -31
-6 -31 -10 0 -5 -4 -6 -9 -2 -5 3 -12 1 -16 -5 -4 -6 -11 -8 -16 -5 -5 4 -9 2
-9 -3 0 -9 -51 -23 -74 -21 -5 0 -12 -4 -16 -11 -4 -6 -15 -12 -24 -14 -10 -1
-21 -7 -24 -12 -4 -5 -11 -9 -17 -10 -14 0 -115 -48 -115 -54 0 -13 124 -52
134 -42 3 3 6 1 6 -4 0 -14 40 -18 155 -17 115 2 145 5 145 14 0 4 11 10 25
13 36 9 120 95 137 141 14 35 14 42 1 54 -15 14 -109 21 -168 13z"/>
</g>
</svg>
