<?xml version="1.0" encoding="UTF-8"?>
<svg width="1690px" height="442px" viewBox="0 0 1690 442" version="1.1" xmlns="http://www.w3.org/2000/svg" xmlns:xlink="http://www.w3.org/1999/xlink">
    <!-- Generator: Sketch 50.2 (55047) - http://www.bohemiancoding.com/sketch -->
    <title>Group</title>
    <desc>Created with Sketch.</desc>
    <defs></defs>
    <g id="Page-1" stroke="none" stroke-width="1" fill="none" fill-rule="evenodd">
        <g id="Group">
            <path d="M34.2122,197.1111 C11.1352,234.7781 2.3442,264.1481 0.3962,288.6311 C-7.3368,385.8181 100.1642,431.4261 152.4912,441.1461 C155.2692,441.6621 168.5672,443.7561 177.6562,438.5721 C182.2942,435.9261 179.4442,431.7541 178.4442,429.4301 C167.5162,404.0371 123.0352,360.9571 85.7692,336.0191 C59.8992,318.7081 49.6152,307.8261 40.4822,293.9891 C8.8542,246.0751 34.2122,197.1111 34.2122,197.1111" id="Fill-1" fill="#8BBAC6"></path>
            <path d="M143.367,101.877793 C92.301,107.836793 51.235,161.144793 35,195.503793 C36.155,193.061793 51.633,167.169793 88.168,145.033793 C90.917,143.367793 110.234,130.392793 167.709,108.449793 C168.154,108.279793 178.138,104.568793 177.362,102.718793 C176.29,100.166793 151.167,100.967793 143.367,101.877793" id="Fill-4" fill="#8BBAC6"></path>
            <path d="M225.419803,101 C227.796803,105.307 230.260803,109.568 232.535803,113.928 C239.776803,127.802 245.656803,142.206 249.306803,157.469 C252.231803,169.703 253.569803,182.097 252.732803,194.652 C251.425803,214.26 244.942803,232.082 233.687803,248.17 C223.844803,262.238 211.496803,273.775 197.444803,283.502 C173.828803,299.85 147.931803,311.112 119.971803,317.602 C115.649803,318.605 111.219803,319.38 106.800803,319.669 C102.295803,319.963 97.7418029,319.529 93.3558029,318.177 C93.0518029,318.083 92.7518029,317.975 92.4558029,317.857 C87.7258029,315.987 86.8868029,313.125 89.3458029,308.638 C92.3708029,303.121 95.4328029,297.647 99.1378029,292.543 C104.668803,284.924 110.769803,277.793 117.278803,271.001 C135.540803,251.942 156.078803,235.608 177.728803,220.623 C186.054803,214.859 194.213803,208.919 201.441803,201.777 C215.854803,187.535 225.907803,170.877 229.494803,150.73 C232.075803,136.229 231.097803,121.876 226.934803,107.747 C226.287803,105.553 225.582803,103.375 224.904803,101.19 C225.076803,101.127 225.248803,101.063 225.419803,101" id="Fill-6" fill="#E54326"></path>
            <path d="M122.5989,21.824 C119.5849,20.3 116.8479,19.162 114.3839,17.595 C112.1939,16.203 110.1699,14.473 108.3219,12.641 C106.4369,10.774 105.7259,8.336 105.9459,5.63 C106.1609,2.991 107.3929,1.351 109.8889,0.556 C112.7479,-0.355 115.5439,0.181 118.3529,0.821 C128.4909,3.125 137.6689,7.609 146.3679,13.164 C155.9349,19.275 164.6079,26.506 172.7489,34.389 C190.1069,51.199 204.9649,70.049 218.2419,90.186 C218.5479,90.651 218.8459,91.122 219.1299,91.599 C219.2009,91.718 219.2049,91.875 219.3229,92.348 C218.2019,91.357 217.2669,90.565 216.3719,89.732 C204.7909,78.965 191.6449,70.512 177.5369,63.486 C166.4209,57.948 154.8529,53.484 143.2669,49.058 C136.8839,46.619 130.4529,44.28 124.4819,40.883 C121.9569,39.447 119.7409,37.658 118.0269,35.303 C117.3739,34.407 116.7499,33.464 116.2799,32.464 C114.6109,28.912 115.5029,25.915 118.8339,23.84 C119.9619,23.138 121.1789,22.578 122.5989,21.824" id="Fill-8" fill="#E54326"></path>
            <path d="M182,299.603452 C182.583,299.197452 182.929,298.895452 183.325,298.689452 C194.568,292.855452 206.18,287.948452 218.485,284.812452 C223.039,283.652452 227.637,282.781452 232.38,283.048452 C237.864,283.356452 239.496,286.107452 236.854,290.968452 C232.992,298.070452 227.006,302.504452 219.155,304.369452 C211.736,306.130452 204.28,305.738452 196.923,304.147452 C192.286,303.145452 187.775,301.555452 183.212,300.212452 C182.863,300.110452 182.549,299.884452 182,299.603452" id="Fill-11" fill="#E54326"></path>
            <path d="M462.243,245.073 C458.639,249.772 453.643,253.331 447.257,255.748 C440.869,258.166 433.615,259.375 425.496,259.375 C417.147,259.375 409.757,257.483 403.324,253.696 C396.891,249.909 391.93,244.491 388.439,237.443 C384.95,230.394 383.137,222.172 383,212.773 L383,204.971 C383,189.916 386.602,178.158 393.811,169.695 C401.019,161.233 411.079,157 423.99,157 C435.076,157 443.88,159.749 450.405,165.246 C456.929,170.744 460.851,178.649 462.175,188.958 L445.204,188.958 C443.288,176.96 436.33,170.961 424.332,170.961 C416.576,170.961 410.68,173.748 406.642,179.321 C402.605,184.894 400.518,193.072 400.381,203.854 L400.381,211.497 C400.381,222.235 402.65,230.573 407.19,236.509 C411.729,242.447 418.037,245.415 426.111,245.415 C434.962,245.415 441.258,243.419 444.999,239.425 L444.999,220.027 L424.469,220.027 L424.469,206.887 L462.243,206.887 L462.243,245.073 Z" id="Fill-13" fill="#FEFEFE"></path>
            <polygon id="Fill-15" fill="#FEFEFE" points="481 257.112 497.629 257.112 497.629 152 481 152"></polygon>
            <path d="M528.629,221.144 C528.629,228.764 530.203,234.727 533.351,239.039 C536.499,243.35 540.878,245.506 546.489,245.506 C552.101,245.506 556.469,243.316 559.595,238.936 C562.719,234.557 564.282,228.147 564.282,219.707 C564.282,212.225 562.674,206.294 559.457,201.915 C556.241,197.535 551.872,195.345 546.353,195.345 C540.923,195.345 536.612,197.5 533.419,201.812 C530.226,206.123 528.629,212.567 528.629,221.144 Z M512,219.707 C512,212.453 513.438,205.918 516.312,200.101 C519.186,194.284 523.223,189.813 528.424,186.688 C533.624,183.564 539.601,182 546.353,182 C556.344,182 564.453,185.217 570.681,191.649 C576.907,198.082 580.272,206.614 580.775,217.243 L580.843,221.144 C580.843,228.444 579.44,234.967 576.634,240.716 C573.828,246.464 569.814,250.912 564.59,254.06 C559.365,257.208 553.333,258.782 546.489,258.782 C536.042,258.782 527.682,255.303 521.409,248.346 C515.136,241.389 512,232.117 512,220.528 L512,219.707 Z" id="Fill-17" fill="#FEFEFE"></path>
            <path d="M643.381,219.406 C643.381,211.377 641.967,205.355 639.139,201.34 C636.31,197.326 632.203,195.318 626.82,195.318 C619.612,195.318 614.548,198.466 611.629,204.761 L611.629,235.282 C614.594,241.715 619.704,244.931 626.958,244.931 C632.158,244.931 636.172,242.992 639.002,239.114 C641.83,235.237 643.289,229.374 643.381,221.527 L643.381,219.406 Z M660.01,220.843 C660.01,232.34 657.444,241.487 652.312,248.284 C647.179,255.083 640.119,258.481 631.132,258.481 C622.464,258.481 615.711,255.356 610.876,249.106 L610.055,257.112 L595,257.112 L595,152 L611.629,152 L611.629,190.185 C616.419,184.529 622.874,181.699 630.995,181.699 C640.028,181.699 647.121,185.053 652.277,191.759 C657.432,198.466 660.01,207.841 660.01,219.885 L660.01,220.843 Z" id="Fill-18" fill="#FEFEFE"></path>
            <path d="M700.331,245.437 C703.615,245.437 706.705,244.639 709.603,243.042 C712.5,241.445 714.678,239.302 716.139,236.609 L716.139,222.649 L707.174,222.649 C701.015,222.649 696.384,223.721 693.282,225.865 C690.18,228.01 688.629,231.043 688.629,234.967 C688.629,238.161 689.689,240.705 691.81,242.597 C693.933,244.491 696.772,245.437 700.331,245.437 Z M718.602,257.413 C717.872,255.999 717.233,253.695 716.685,250.501 C711.393,256.021 704.916,258.781 697.251,258.781 C689.814,258.781 683.747,256.66 679.049,252.417 C674.349,248.174 672,242.928 672,236.678 C672,228.786 674.931,222.729 680.793,218.509 C686.655,214.29 695.038,212.179 705.942,212.179 L716.139,212.179 L716.139,207.32 C716.139,203.488 715.065,200.42 712.922,198.116 C710.777,195.813 707.516,194.66 703.137,194.66 C699.349,194.66 696.247,195.607 693.83,197.5 C691.411,199.394 690.203,201.801 690.203,204.72 L673.574,204.72 C673.574,200.66 674.919,196.862 677.611,193.326 C680.303,189.791 683.964,187.019 688.595,185.011 C693.225,183.004 698.391,182 704.095,182 C712.762,182 719.673,184.179 724.829,188.536 C729.984,192.893 732.631,199.017 732.768,206.91 L732.768,240.305 C732.768,246.966 733.702,252.28 735.573,256.249 L735.573,257.413 L718.602,257.413 Z" id="Fill-19" fill="#FEFEFE"></path>
            <polygon id="Fill-20" fill="#FEFEFE" points="751 257.112 767.629 257.112 767.629 152 751 152"></polygon>
            <polygon id="Fill-21" fill="#FEFEFE" points="879.414 215.552 839.312 215.552 839.312 257.638 822 257.638 822 158 885.299 158 885.299 171.961 839.312 171.961 839.312 201.592 879.414 201.592"></polygon>
            <path d="M899.026,257.307 L915.655,257.307 L915.655,183.263 L899.026,183.263 L899.026,257.307 Z M898,163.965 C898,161.391 898.809,159.254 900.429,157.553 C902.048,155.852 904.364,155 907.374,155 C910.386,155 912.712,155.852 914.355,157.553 C915.997,159.254 916.819,161.391 916.819,163.965 C916.819,166.495 915.997,168.598 914.355,170.275 C912.712,171.955 910.386,172.792 907.374,172.792 C904.364,172.792 902.048,171.955 900.429,170.275 C898.809,168.598 898,166.495 898,163.965 Z" id="Fill-22" fill="#FEFEFE"></path>
            <path d="M974.891,237.293 C974.891,234.328 973.67,232.07 971.23,230.518 C968.788,228.968 964.74,227.599 959.083,226.412 C953.426,225.227 948.704,223.721 944.918,221.896 C936.615,217.882 932.463,212.065 932.463,204.445 C932.463,198.059 935.155,192.721 940.538,188.432 C945.921,184.145 952.764,182 961.068,182 C969.918,182 977.069,184.189 982.521,188.569 C987.972,192.949 990.699,198.629 990.699,205.609 L974.07,205.609 C974.07,202.416 972.883,199.758 970.511,197.636 C968.139,195.515 964.991,194.454 961.068,194.454 C957.417,194.454 954.441,195.299 952.138,196.986 C949.833,198.675 948.682,200.933 948.682,203.761 C948.682,206.316 949.753,208.301 951.898,209.715 C954.042,211.129 958.375,212.555 964.9,213.992 C971.423,215.429 976.544,217.14 980.263,219.124 C983.981,221.109 986.741,223.493 988.543,226.275 C990.345,229.059 991.246,232.434 991.246,236.403 C991.246,243.065 988.486,248.46 982.966,252.587 C977.446,256.717 970.214,258.781 961.273,258.781 C955.205,258.781 949.799,257.686 945.055,255.496 C940.31,253.306 936.615,250.295 933.969,246.463 C931.323,242.631 930,238.502 930,234.077 L946.15,234.077 C946.377,238.001 947.861,241.022 950.598,243.144 C953.335,245.265 956.962,246.326 961.479,246.326 C965.858,246.326 969.188,245.494 971.469,243.828 C973.75,242.164 974.891,239.985 974.891,237.293" id="Fill-23" fill="#FEFEFE"></path>
            <path d="M1022.629,191.144 C1028.058,184.848 1034.923,181.7 1043.227,181.7 C1059.011,181.7 1067.018,190.711 1067.246,208.731 L1067.246,257.113 L1050.617,257.113 L1050.617,209.347 C1050.617,204.238 1049.511,200.622 1047.299,198.5 C1045.085,196.379 1041.835,195.318 1037.547,195.318 C1030.886,195.318 1025.914,198.285 1022.629,204.214 L1022.629,257.113 L1006,257.113 L1006,152 L1022.629,152 L1022.629,191.144 Z" id="Fill-24" fill="#FEFEFE"></path>
            <path d="M1085.026,257.307 L1101.655,257.307 L1101.655,183.263 L1085.026,183.263 L1085.026,257.307 Z M1084,163.965 C1084,161.391 1084.809,159.254 1086.43,157.553 C1088.049,155.852 1090.364,155 1093.375,155 C1096.387,155 1098.713,155.852 1100.355,157.553 C1101.998,159.254 1102.819,161.391 1102.819,163.965 C1102.819,166.495 1101.998,168.598 1100.355,170.275 C1098.713,171.955 1096.387,172.792 1093.375,172.792 C1090.364,172.792 1088.049,171.955 1086.43,170.275 C1084.809,168.598 1084,166.495 1084,163.965 Z" id="Fill-25" fill="#FEFEFE"></path>
            <path d="M1134.671,183.369 L1135.15,191.923 C1140.624,185.309 1147.81,182 1156.706,182 C1172.125,182 1179.973,190.828 1180.246,208.484 L1180.246,257.413 L1163.617,257.413 L1163.617,209.442 C1163.617,204.744 1162.602,201.264 1160.572,199.006 C1158.542,196.747 1155.223,195.619 1150.615,195.619 C1143.909,195.619 1138.914,198.653 1135.629,204.72 L1135.629,257.413 L1119,257.413 L1119,183.369 L1134.671,183.369 Z" id="Fill-26" fill="#FEFEFE"></path>
            <path d="M1211.561,221.28 C1211.561,228.717 1213.078,234.568 1216.112,238.833 C1219.145,243.099 1223.354,245.231 1228.738,245.231 C1235.444,245.231 1240.415,242.357 1243.656,236.609 L1243.656,204.035 C1240.507,198.424 1235.581,195.618 1228.874,195.618 C1223.4,195.618 1219.145,197.785 1216.112,202.119 C1213.078,206.454 1211.561,212.841 1211.561,221.28 M1195,219.843 C1195,208.346 1197.704,199.166 1203.11,192.299 C1208.516,185.433 1215.689,182 1224.631,182 C1233.071,182 1239.708,184.943 1244.545,190.828 L1245.297,183.368 L1260.285,183.368 L1260.285,255.154 C1260.285,264.871 1257.261,272.536 1251.217,278.147 C1245.171,283.759 1237.018,286.565 1226.752,286.565 C1221.323,286.565 1216.02,285.435 1210.842,283.177 C1205.665,280.919 1201.729,277.965 1199.038,274.315 L1206.908,264.324 C1212.016,270.391 1218.312,273.426 1225.794,273.426 C1231.314,273.426 1235.671,271.931 1238.866,268.943 C1242.058,265.955 1243.656,261.563 1243.656,255.77 L1243.656,250.774 C1238.866,256.112 1232.478,258.781 1224.495,258.781 C1215.827,258.781 1208.744,255.337 1203.247,248.447 C1197.748,241.559 1195,232.024 1195,219.843" id="Fill-27" fill="#FEFEFE"></path>
            <polygon id="Fill-28" fill="#FEFEFE" points="1391.992 233.002 1407.32 158 1424.497 158 1401.504 257.638 1384.943 257.638 1365.987 184.894 1346.621 257.638 1329.992 257.638 1307 158 1324.176 158 1339.641 232.865 1358.665 158 1373.173 158"></polygon>
            <path d="M1458.33,245.437 C1461.615,245.437 1464.705,244.639 1467.602,243.042 C1470.499,241.445 1472.678,239.302 1474.138,236.609 L1474.138,222.649 L1465.174,222.649 C1459.015,222.649 1454.384,223.721 1451.282,225.865 C1448.179,228.01 1446.629,231.043 1446.629,234.967 C1446.629,238.161 1447.689,240.705 1449.81,242.597 C1451.932,244.491 1454.771,245.437 1458.33,245.437 Z M1476.601,257.413 C1475.871,255.999 1475.233,253.695 1474.685,250.501 C1469.393,256.021 1462.915,258.781 1455.251,258.781 C1447.814,258.781 1441.746,256.66 1437.048,252.417 C1432.349,248.174 1430,242.928 1430,236.678 C1430,228.786 1432.931,222.729 1438.793,218.509 C1444.654,214.29 1453.038,212.179 1463.941,212.179 L1474.138,212.179 L1474.138,207.32 C1474.138,203.488 1473.065,200.42 1470.922,198.116 C1468.777,195.813 1465.516,194.66 1461.136,194.66 C1457.349,194.66 1454.247,195.607 1451.829,197.5 C1449.411,199.394 1448.202,201.801 1448.202,204.72 L1431.573,204.72 C1431.573,200.66 1432.919,196.862 1435.611,193.326 C1438.303,189.791 1441.964,187.019 1446.595,185.011 C1451.225,183.004 1456.391,182 1462.094,182 C1470.762,182 1477.673,184.179 1482.829,188.536 C1487.983,192.893 1490.63,199.017 1490.767,206.91 L1490.767,240.305 C1490.767,246.966 1491.701,252.28 1493.572,256.249 L1493.572,257.413 L1476.601,257.413 Z" id="Fill-29" fill="#FEFEFE"></path>
            <path d="M1529.81,166 L1529.81,183.998 L1542.88,183.998 L1542.88,196.315 L1529.81,196.315 L1529.81,237.648 C1529.81,240.478 1530.368,242.519 1531.487,243.773 C1532.604,245.029 1534.6,245.655 1537.474,245.655 C1539.39,245.655 1541.329,245.428 1543.29,244.971 L1543.29,257.836 C1539.503,258.885 1535.854,259.41 1532.342,259.41 C1519.568,259.41 1513.181,252.362 1513.181,238.265 L1513.181,196.315 L1501,196.315 L1501,183.998 L1513.181,183.998 L1513.181,166 L1529.81,166 Z" id="Fill-30" fill="#FEFEFE"></path>
            <path d="M1585.531,245.505 C1589.682,245.505 1593.127,244.297 1595.864,241.878 C1598.601,239.461 1600.061,236.472 1600.244,232.913 L1615.915,232.913 C1615.732,237.522 1614.295,241.821 1611.603,245.813 C1608.911,249.806 1605.261,252.964 1600.654,255.291 C1596.046,257.617 1591.074,258.781 1585.736,258.781 C1575.38,258.781 1567.168,255.428 1561.101,248.721 C1555.033,242.015 1552,232.754 1552,220.938 L1552,219.227 C1552,207.959 1555.01,198.937 1561.033,192.162 C1567.054,185.387 1575.266,182 1585.668,182 C1594.472,182 1601.647,184.566 1607.19,189.698 C1612.733,194.831 1615.641,201.571 1615.915,209.92 L1600.244,209.92 C1600.061,205.677 1598.612,202.187 1595.898,199.45 C1593.183,196.713 1589.728,195.344 1585.531,195.344 C1580.147,195.344 1575.996,197.295 1573.077,201.195 C1570.156,205.096 1568.674,211.015 1568.629,218.953 L1568.629,221.622 C1568.629,229.652 1570.076,235.64 1572.974,239.586 C1575.871,243.532 1580.056,245.505 1585.531,245.505" id="Fill-31" fill="#FEFEFE"></path>
            <path d="M1644.629,191.144 C1650.058,184.848 1656.923,181.7 1665.227,181.7 C1681.011,181.7 1689.018,190.711 1689.246,208.731 L1689.246,257.113 L1672.617,257.113 L1672.617,209.347 C1672.617,204.238 1671.511,200.622 1669.299,198.5 C1667.085,196.379 1663.835,195.318 1659.547,195.318 C1652.886,195.318 1647.914,198.285 1644.629,204.214 L1644.629,257.113 L1628,257.113 L1628,152 L1644.629,152 L1644.629,191.144 Z" id="Fill-32" fill="#FEFEFE"></path>
        </g>
    </g>
</svg>