
<svg width="245" height="57" viewBox="0 0 245 57" xmlns="http://www.w3.org/2000/svg"><title>59A01CE1-63DB-4AE8-A1C0-71FA8849F4C6</title><g fill="none" fill-rule="evenodd"><path d="M54.422 33.424c-.297.457-.812.876-1.545 1.26-.734.382-1.683.573-2.848.573-1.49 0-2.723-.477-3.696-1.43-.974-.954-1.46-2.187-1.46-3.7v-2.57c0-1.512.454-2.745 1.36-3.7.91-.952 2.08-1.43 3.513-1.43 1.427 0 2.55.352 3.365 1.055.816.702 1.233 1.607 1.25 2.714l-.017.052h-1.61c-.05-.725-.327-1.322-.826-1.79-.5-.468-1.22-.702-2.163-.702-.954 0-1.722.357-2.304 1.07-.582.714-.874 1.62-.874 2.715v2.587c0 1.108.325 2.02.976 2.736.65.717 1.478 1.075 2.483 1.075.707 0 1.287-.094 1.738-.283.45-.188.773-.402.967-.642v-2.835h-2.732V28.85h4.42v4.574zm4.608.334h5.9v1.32h-7.587v-12.47h1.687v11.15zm17.007-3.802c0 1.524-.472 2.79-1.417 3.794-.945 1.004-2.17 1.507-3.678 1.507-1.456 0-2.64-.503-3.55-1.507-.91-1.005-1.366-2.27-1.366-3.794v-2.218c0-1.52.455-2.783 1.366-3.794.91-1.01 2.094-1.516 3.55-1.516 1.507 0 2.733.504 3.678 1.512.945 1.007 1.417 2.273 1.417 3.798v2.218zM74.35 27.72c0-1.14-.308-2.077-.925-2.808-.616-.73-1.444-1.096-2.483-1.096-.982 0-1.766.365-2.35 1.096-.586.73-.88 1.667-.88 2.81v2.234c0 1.153.294 2.095.88 2.826.584.73 1.368 1.096 2.35 1.096 1.044 0 1.874-.364 2.487-1.092.613-.728.92-1.67.92-2.83V27.72zm4.205 7.357v-12.47h4.068c1.3 0 2.32.282 3.057.845.736.562 1.105 1.406 1.105 2.53 0 .554-.177 1.05-.53 1.486-.355.437-.82.76-1.397.972.753.16 1.346.528 1.777 1.105.43.576.646 1.247.646 2.012 0 1.142-.368 2.014-1.108 2.616-.74.603-1.742.904-3.01.904h-4.607zm1.687-5.85v4.53h2.92c.765 0 1.362-.19 1.79-.568.428-.38.642-.92.642-1.616 0-.73-.178-1.304-.535-1.72-.358-.418-.907-.626-1.65-.626h-3.168zm0-1.318h2.732c.628 0 1.14-.174 1.533-.52.394-.344.59-.825.59-1.442 0-.674-.212-1.177-.637-1.51-.426-.335-1.038-.502-1.837-.502h-2.38v3.973zm16.28 3.956h-5.224l-1.182 3.21h-1.72l4.82-12.468h1.447l4.744 12.47h-1.72l-1.166-3.212zm-4.702-1.413h4.196l-2.055-5.678h-.05l-2.09 5.678zm10.987 3.305h5.9v1.32h-7.587v-12.47h1.687v11.15zm19.517-4.196h-5.686v5.515h-1.687v-12.47h8.247v1.33h-6.56v4.298h5.687v1.327zm4.624 5.515h-1.695v-12.47h1.695v12.47zm9.968-3.143c0-.57-.214-1.05-.642-1.434-.428-.386-1.187-.71-2.278-.972-1.32-.314-2.348-.777-3.087-1.388-.74-.61-1.11-1.378-1.11-2.303 0-.97.398-1.782 1.195-2.432.796-.65 1.828-.977 3.095-.977 1.365 0 2.45.374 3.26 1.122.807.748 1.196 1.616 1.168 2.604l-.017.05h-1.61c0-.73-.24-1.32-.723-1.772-.482-.45-1.175-.676-2.077-.676-.84 0-1.483.19-1.93.57-.45.38-.673.874-.673 1.485 0 .543.243.996.728 1.358.485.363 1.273.68 2.364.955 1.312.326 2.31.805 2.996 1.44.685.633 1.028 1.418 1.028 2.354 0 1.005-.412 1.813-1.234 2.423-.822.61-1.895.917-3.22.917-1.244 0-2.345-.337-3.3-1.01-.957-.674-1.42-1.576-1.393-2.707l.018-.05h1.61c0 .798.294 1.406.882 1.823.588.417 1.316.625 2.183.625.85 0 1.525-.18 2.02-.54.498-.36.746-.847.746-1.464zm13.574 3.143h-1.687V29.57h-6.055v5.507h-1.687v-12.47h1.688v5.636h6.055v-5.635h1.687v12.47zm4.864 0h-1.695v-12.47h1.694v12.47zm12.606 0h-1.687l-6.003-9.643-.052.017v9.627h-1.687v-12.47h1.688l6.003 9.627.053-.017v-9.61h1.687v12.47zm12.118-1.653c-.297.457-.813.876-1.546 1.26-.734.382-1.683.573-2.848.573-1.49 0-2.72-.477-3.695-1.43-.974-.954-1.46-2.187-1.46-3.7v-2.57c0-1.512.453-2.745 1.36-3.7.908-.952 2.08-1.43 3.512-1.43 1.427 0 2.55.352 3.365 1.055.817.702 1.233 1.607 1.25 2.714l-.017.052h-1.61c-.05-.725-.326-1.322-.826-1.79-.5-.468-1.22-.702-2.162-.702-.954 0-1.722.357-2.304 1.07-.582.714-.873 1.62-.873 2.715v2.587c0 1.108.325 2.02.976 2.736.652.717 1.48 1.075 2.484 1.075.708 0 1.288-.094 1.74-.283.45-.188.772-.402.966-.642v-2.835h-2.73V28.85h4.418v4.574zm9.78-2.663l.23 1.56.052.008.334-1.567 2.286-8.152h1.49l2.304 8.153.343 1.602h.05l.25-1.6 1.858-8.154h1.687l-3.006 12.47h-1.507l-2.46-8.65-.222-1.122h-.05l-.215 1.122-2.5 8.65h-1.508l-2.997-12.47h1.678l1.9 8.153zm19.38 1.106h-5.225l-1.182 3.21h-1.72l4.82-12.468h1.45l4.743 12.47h-1.72l-1.166-3.212zm-4.703-1.413h4.197l-2.056-5.678h-.05l-2.09 5.678zm17.744-6.517h-4.008v11.14h-1.687v-11.14h-4v-1.328h9.694v1.328zm10.404 7.15l.017.052c.024 1.17-.387 2.15-1.232 2.937-.845.788-1.96 1.182-3.348 1.182-1.41 0-2.56-.5-3.447-1.5-.888-.998-1.332-2.265-1.332-3.8v-2.22c0-1.535.445-2.804 1.333-3.806.888-1 2.037-1.502 3.447-1.502 1.41 0 2.532.376 3.365 1.126.834.75 1.24 1.746 1.216 2.985l-.016.05h-1.618c0-.873-.257-1.564-.77-2.072-.515-.508-1.24-.762-2.176-.762-.942 0-1.693.38-2.252 1.14-.56.758-.84 1.7-.84 2.825v2.236c0 1.136.28 2.084.84 2.843.56.758 1.31 1.138 2.252 1.138.936 0 1.66-.253 2.175-.758.514-.505.77-1.203.77-2.094h1.62zm11.724 3.99h-1.687V29.57h-6.054v5.507h-1.687v-12.47h1.686v5.636h6.055v-5.635h1.688v12.47z" fill="#FFF"/><path d="M4.337 25.446s-5.106 9.71 5.54 16.97c10.65 7.262 12.665 12.444 12.665 12.444s1.44 1.622-2.176 1.67c-3.615.05-30.737-7.658-16.03-31.084zm.12-.207S9.87 13.312 19.753 13.217c9.883-.096-9.484 2.074-15.296 12.02z" fill="#8ABAC6"/><path d="M22.884 37.342s4.543 2.016 6.55-.564c2.01-2.58-2.717-1.513-6.55.564zm4.982-25.128S21.62 1.842 14.963.52c0 0-1.413-.337-1.36.826.05 1.162 2.118 1.832 2.118 1.832s-1.828.426-.394 1.926c1.434 1.5 7.875 2.248 12.54 7.11zm0 0s4.545 8.64-4.93 15.104c-9.478 6.462-11.272 11.075-11.272 11.075s-1.28 1.444 1.937 1.487c3.218.044 27.357-6.816 14.266-27.666z" fill="#EF4323"/></g></svg>
