<svg width="50" height="45" viewBox="0 0 50 45" xmlns="http://www.w3.org/2000/svg"><title>6B4E0850-4376-44A4-B5F2-1336076A50ED</title><path d="M36.726 38.571h7.983c2.632 0 4.791-2.152 4.791-4.807V4.807C49.5 2.157 47.355 0 44.709 0H4.79C2.16 0 0 2.152 0 4.807v28.957c0 2.651 2.145 4.807 4.791 4.807h7.983v1.593c0 2.667 2.144 4.836 4.79 4.836h14.372c2.643 0 4.79-2.165 4.79-4.836v-1.578-.015zM4.79 6.418c0-.882.727-1.597 1.59-1.597h36.74c.878 0 1.59.716 1.59 1.597v25.735c0 .882-.727 1.597-1.59 1.597H6.38c-.878 0-1.59-.715-1.59-1.597V6.418z" fill="#FFF" fill-rule="evenodd"/></svg>