<?xml version="1.0" encoding="UTF-8"?>
<svg width="1207px" height="322px" viewBox="0 0 1207 322" version="1.1" xmlns="http://www.w3.org/2000/svg" xmlns:xlink="http://www.w3.org/1999/xlink">
    <!-- Generator: Sketch 47.1 (45422) - http://www.bohemiancoding.com/sketch -->
    <title>fishing_logo</title>
    <desc>Created with Sketch.</desc>
    <defs></defs>
    <g id="Page-1" stroke="none" stroke-width="1" fill="none" fill-rule="evenodd">
        <g id="fishing_logo">
            <g id="GFW_Logo+NAME+Tag-reverse-(1)" transform="translate(299.000000, 87.000000)" fill="#FFFFFE">
                <path d="M44.59375,50.5390625 C42.666657,53.299493 39.9778818,55.3632744 36.5273438,56.7304688 C33.0768057,58.0976631 29.0599187,58.78125 24.4765625,58.78125 C19.8411227,58.78125 15.7265805,57.6940213 12.1328125,55.5195312 C8.53904453,53.3450412 5.75912441,50.2526242 3.79296875,46.2421875 C1.82681309,42.2317508 0.817708594,37.5833598 0.765625,32.296875 L0.765625,27.3359375 C0.765625,18.7681863 2.76430293,12.1276277 6.76171875,7.4140625 C10.7591346,2.70049727 16.377568,0.34375 23.6171875,0.34375 C29.5547172,0.34375 34.3333152,1.86066191 37.953125,4.89453125 C41.5729348,7.92840059 43.7864543,12.231743 44.59375,17.8046875 L37.09375,17.8046875 C35.687493,10.2786082 31.2083711,6.515625 23.65625,6.515625 C18.6301832,6.515625 14.8216275,8.27993027 12.2304688,11.8085938 C9.63930996,15.3372572 8.3307293,20.4478832 8.3046875,27.140625 L8.3046875,31.7890625 C8.3046875,38.1693027 9.76300625,43.2408666 12.6796875,47.0039062 C15.5963687,50.7669459 19.5416418,52.6484375 24.515625,52.6484375 C27.3281391,52.6484375 29.789052,52.3359406 31.8984375,51.7109375 C34.007823,51.0859344 35.7525973,50.0312574 37.1328125,48.546875 L37.1328125,35.7734375 L23.96875,35.7734375 L23.96875,29.6796875 L44.59375,29.6796875 L44.59375,50.5390625 Z M64.7428125,51.8671875 L91.6959375,51.8671875 L91.6959375,58 L57.20375,58 L57.20375,1.125 L64.7428125,1.125 L64.7428125,51.8671875 Z M141.571562,31.3984375 C141.571562,36.971382 140.634072,41.8346146 138.759062,45.9882812 C136.884053,50.1419479 134.22783,53.3124891 130.790312,55.5 C127.352795,57.6875109 123.342419,58.78125 118.759062,58.78125 C114.279873,58.78125 110.308559,57.6810006 106.845,55.4804688 C103.381441,53.2799369 100.692666,50.1419475 98.7785937,46.0664062 C96.8645217,41.990865 95.8814586,37.2708602 95.829375,31.90625 L95.829375,27.8046875 C95.829375,22.3359102 96.7798863,17.5052293 98.6809375,13.3125 C100.581989,9.1197707 103.270764,5.91016738 106.747344,3.68359375 C110.223924,1.45702012 114.201748,0.34375 118.680937,0.34375 C123.238252,0.34375 127.255139,1.44399941 130.731719,3.64453125 C134.208299,5.84506309 136.884053,9.03513535 138.759062,13.2148438 C140.634072,17.3945521 141.571562,22.2577848 141.571562,27.8046875 L141.571562,31.3984375 Z M134.110625,27.7265625 C134.110625,20.9817371 132.756472,15.8060076 130.048125,12.1992188 C127.339778,8.59242988 123.550754,6.7890625 118.680937,6.7890625 C113.94133,6.7890625 110.210899,8.59242988 107.489531,12.1992188 C104.768163,15.8060076 103.368438,20.812468 103.290312,27.21875 L103.290312,31.3984375 C103.290312,37.9349285 104.663997,43.0715959 107.411406,46.8085938 C110.158816,50.5455916 113.94133,52.4140625 118.759062,52.4140625 C123.602837,52.4140625 127.352799,50.6497572 130.009062,47.1210938 C132.665326,43.5924303 134.0325,38.5338871 134.110625,31.9453125 L134.110625,27.7265625 Z M152.931562,58 L152.931562,1.125 L171.525312,1.125 C177.697218,1.125 182.339099,2.40102891 185.451094,4.953125 C188.563088,7.50522109 190.119062,11.281225 190.119062,16.28125 C190.119062,18.9375133 189.363862,21.2877502 187.853437,23.3320312 C186.343013,25.3763123 184.285742,26.9583277 181.681562,28.078125 C184.754495,28.9375043 187.182856,30.5716025 188.966719,32.9804688 C190.750582,35.389335 191.6425,38.2604 191.6425,41.59375 C191.6425,46.6979422 189.988871,50.7083187 186.681562,53.625 C183.374254,56.5416812 178.699822,58 172.658125,58 L152.931562,58 Z M160.431562,31.3984375 L160.431562,51.8671875 L172.814375,51.8671875 C176.303976,51.8671875 179.057854,50.9622486 181.076094,49.1523438 C183.094333,47.3424389 184.103437,44.8489742 184.103437,41.671875 C184.103437,34.8228824 180.379516,31.3984375 172.931562,31.3984375 L160.431562,31.3984375 Z M160.431562,25.3828125 L171.759687,25.3828125 C175.040954,25.3828125 177.664626,24.5625082 179.630781,22.921875 C181.596937,21.2812418 182.58,19.0547016 182.58,16.2421875 C182.58,13.1171719 181.668551,10.8450592 179.845625,9.42578125 C178.022699,8.00650332 175.249289,7.296875 171.525312,7.296875 L160.431562,7.296875 L160.431562,25.3828125 Z M234.2525,43.15625 L210.424375,43.15625 L205.072812,58 L197.338437,58 L219.057187,1.125 L225.619687,1.125 L247.3775,58 L239.682187,58 L234.2525,43.15625 Z M212.69,36.984375 L232.025937,36.984375 L222.338437,10.3828125 L212.69,36.984375 Z M262.682812,51.8671875 L289.635937,51.8671875 L289.635937,58 L255.14375,58 L255.14375,1.125 L262.682812,1.125 L262.682812,51.8671875 Z M348.5825,32.8828125 L324.715312,32.8828125 L324.715312,58 L317.215312,58 L317.215312,1.125 L352.449687,1.125 L352.449687,7.296875 L324.715312,7.296875 L324.715312,26.75 L348.5825,26.75 L348.5825,32.8828125 Z M369.590937,58 L362.090937,58 L362.090937,1.125 L369.590937,1.125 L369.590937,58 Z M400.169687,32.6484375 C393.737364,30.7994699 389.056421,28.5273572 386.126719,25.8320312 C383.197017,23.1367053 381.732187,19.8099156 381.732187,15.8515625 C381.732187,11.3723734 383.522534,7.6679834 387.103281,4.73828125 C390.684028,1.8085791 395.33893,0.34375 401.068125,0.34375 C404.974395,0.34375 408.457433,1.09895078 411.517344,2.609375 C414.577255,4.11979922 416.947023,6.20311172 418.626719,8.859375 C420.306415,11.5156383 421.14625,14.4192551 421.14625,17.5703125 L413.607187,17.5703125 C413.607187,14.1327953 412.513448,11.4309994 410.325937,9.46484375 C408.138427,7.49868809 405.05252,6.515625 401.068125,6.515625 C397.37019,6.515625 394.486104,7.32941895 392.415781,8.95703125 C390.345458,10.5846436 389.310312,12.8437355 389.310312,15.734375 C389.310312,18.0520949 390.293376,20.0117107 392.259531,21.6132812 C394.225687,23.2148518 397.572008,24.6796809 402.298594,26.0078125 C407.02518,27.3359441 410.72306,28.8007732 413.392344,30.4023438 C416.061628,32.0039143 418.040775,33.8723852 419.329844,36.0078125 C420.618913,38.1432398 421.263437,40.6562355 421.263437,43.546875 C421.263437,48.156273 419.46658,51.8476424 415.872812,54.6210938 C412.279045,57.3945451 407.474405,58.78125 401.45875,58.78125 C397.55248,58.78125 393.906684,58.0325596 390.52125,56.5351562 C387.135816,55.0377529 384.525165,52.9869922 382.689219,50.3828125 C380.853272,47.7786328 379.935312,44.8229332 379.935312,41.515625 L387.474375,41.515625 C387.474375,44.9531422 388.743894,47.6679588 391.282969,49.6601562 C393.822044,51.6523537 397.213937,52.6484375 401.45875,52.6484375 C405.417103,52.6484375 408.450927,51.8411539 410.560312,50.2265625 C412.669698,48.6119711 413.724375,46.4114723 413.724375,43.625 C413.724375,40.8385277 412.747822,38.6836014 410.794687,37.1601562 C408.841553,35.6367111 405.299921,34.1328199 400.169687,32.6484375 Z M474.69375,58 L467.154687,58 L467.154687,31.7109375 L438.482812,31.7109375 L438.482812,58 L430.982812,58 L430.982812,1.125 L438.482812,1.125 L438.482812,25.578125 L467.154687,25.578125 L467.154687,1.125 L474.69375,1.125 L474.69375,58 Z M496.170937,58 L488.670937,58 L488.670937,1.125 L496.170937,1.125 L496.170937,58 Z M552.702812,58 L545.16375,58 L516.530937,14.171875 L516.530937,58 L508.991875,58 L508.991875,1.125 L516.530937,1.125 L545.241875,45.1484375 L545.241875,1.125 L552.702812,1.125 L552.702812,58 Z M608.125312,50.5390625 C606.19822,53.299493 603.509444,55.3632744 600.058906,56.7304688 C596.608368,58.0976631 592.591481,58.78125 588.008125,58.78125 C583.372685,58.78125 579.258143,57.6940213 575.664375,55.5195312 C572.070607,53.3450412 569.290687,50.2526242 567.324531,46.2421875 C565.358376,42.2317508 564.349271,37.5833598 564.297187,32.296875 L564.297187,27.3359375 C564.297187,18.7681863 566.295865,12.1276277 570.293281,7.4140625 C574.290697,2.70049727 579.90913,0.34375 587.14875,0.34375 C593.08628,0.34375 597.864878,1.86066191 601.484687,4.89453125 C605.104497,7.92840059 607.318017,12.231743 608.125312,17.8046875 L600.625312,17.8046875 C599.219055,10.2786082 594.739934,6.515625 587.187812,6.515625 C582.161746,6.515625 578.35319,8.27993027 575.762031,11.8085938 C573.170872,15.3372572 571.862292,20.4478832 571.83625,27.140625 L571.83625,31.7890625 C571.83625,38.1693027 573.294569,43.2408666 576.21125,47.0039062 C579.127931,50.7669459 583.073204,52.6484375 588.047187,52.6484375 C590.859702,52.6484375 593.320614,52.3359406 595.43,51.7109375 C597.539386,51.0859344 599.28416,50.0312574 600.664375,48.546875 L600.664375,35.7734375 L587.500312,35.7734375 L587.500312,29.6796875 L608.125312,29.6796875 L608.125312,50.5390625 Z M652.915625,40.0703125 L654.009375,47.5703125 L655.610937,40.8125 L666.860937,1.125 L673.189062,1.125 L684.165625,40.8125 L685.728125,47.6875 L686.939062,40.03125 L695.767187,1.125 L703.30625,1.125 L689.517187,58 L682.68125,58 L670.9625,16.5546875 L670.064062,12.21875 L669.165625,16.5546875 L657.017187,58 L650.18125,58 L636.43125,1.125 L643.93125,1.125 L652.915625,40.0703125 Z M742.463125,43.15625 L718.635,43.15625 L713.283437,58 L705.549062,58 L727.267812,1.125 L733.830312,1.125 L755.588125,58 L747.892812,58 L742.463125,43.15625 Z M720.900625,36.984375 L740.236562,36.984375 L730.549062,10.3828125 L720.900625,36.984375 Z M802.612187,7.296875 L784.330937,7.296875 L784.330937,58 L776.87,58 L776.87,7.296875 L758.627812,7.296875 L758.627812,1.125 L802.612187,1.125 L802.612187,7.296875 Z M852.701875,39.953125 C851.998746,45.9687801 849.778717,50.6106607 846.041719,53.8789062 C842.304721,57.1471518 837.337323,58.78125 831.139375,58.78125 C824.420591,58.78125 819.036531,56.3724199 814.987031,51.5546875 C810.937532,46.7369551 808.912812,40.291707 808.912812,32.21875 L808.912812,26.75 C808.912812,21.4635152 809.856813,16.8151242 811.744844,12.8046875 C813.632874,8.79425078 816.308629,5.71485449 819.772187,3.56640625 C823.235746,1.41795801 827.246123,0.34375 831.803437,0.34375 C837.845134,0.34375 842.688836,2.02993105 846.334687,5.40234375 C849.980539,8.77475645 852.102914,13.4426785 852.701875,19.40625 L845.162812,19.40625 C844.511768,14.8749773 843.099021,11.5937602 840.924531,9.5625 C838.750041,7.53123984 835.709707,6.515625 831.803437,6.515625 C827.011747,6.515625 823.255274,8.28644062 820.533906,11.828125 C817.812538,15.3698094 816.451875,20.4088215 816.451875,26.9453125 L816.451875,32.453125 C816.451875,38.6250309 817.740925,43.5338359 820.319062,47.1796875 C822.8972,50.8255391 826.503935,52.6484375 831.139375,52.6484375 C835.306062,52.6484375 838.502645,51.7044365 840.729219,49.8164062 C842.955792,47.928376 844.433642,44.6406484 845.162812,39.953125 L852.701875,39.953125 Z M907.557187,58 L900.018125,58 L900.018125,31.7109375 L871.34625,31.7109375 L871.34625,58 L863.84625,58 L863.84625,1.125 L871.34625,1.125 L871.34625,25.578125 L900.018125,25.578125 L900.018125,1.125 L907.557187,1.125 L907.557187,58 Z" id="GLOBAL-FISHING-WATCH"></path>
                <path d="M48.4755859,117.20459 C44.2141714,115.979649 41.1130468,114.474374 39.1721191,112.688721 C37.2311915,110.903067 36.2607422,108.699069 36.2607422,106.07666 C36.2607422,103.109197 37.4468469,100.655039 39.8190918,98.7141113 C42.1913367,96.7731837 45.2752089,95.8027344 49.0708008,95.8027344 C51.6587043,95.8027344 53.9662171,96.3030549 55.9934082,97.3037109 C58.0205993,98.304367 59.5905706,99.6845615 60.7033691,101.444336 C61.8161677,103.20411 62.3725586,105.127756 62.3725586,107.215332 L57.3779297,107.215332 C57.3779297,104.937977 56.6533276,103.148037 55.2041016,101.845459 C53.7548756,100.542881 51.7104624,99.8916016 49.0708008,99.8916016 C46.6209187,99.8916016 44.7102119,100.43074 43.338623,101.509033 C41.9670342,102.587326 41.28125,104.083975 41.28125,105.999023 C41.28125,107.534513 41.9325293,108.832758 43.2351074,109.893799 C44.5376855,110.954839 46.754623,111.925289 49.8859863,112.805176 C53.0173496,113.685063 55.4671949,114.655512 57.2355957,115.716553 C59.0039965,116.777593 60.3151813,118.015455 61.1691895,119.430176 C62.0231976,120.844896 62.4501953,122.509756 62.4501953,124.424805 C62.4501953,127.478531 61.2597775,129.924063 58.8789062,131.761475 C56.498035,133.598886 53.3149613,134.517578 49.3295898,134.517578 C46.7416863,134.517578 44.3263458,134.021571 42.0834961,133.029541 C39.8406463,132.037511 38.1110901,130.678882 36.8947754,128.953613 C35.6784607,127.228344 35.0703125,125.270193 35.0703125,123.079102 L40.0649414,123.079102 C40.0649414,125.356457 40.9059974,127.155023 42.5881348,128.474854 C44.2702721,129.794684 46.5174013,130.45459 49.3295898,130.45459 C51.9519988,130.45459 53.9619071,129.919764 55.359375,128.850098 C56.7568429,127.780431 57.4555664,126.3226 57.4555664,124.476562 C57.4555664,122.630525 56.8086002,121.202886 55.5146484,120.193604 C54.2206967,119.184321 51.874366,118.187993 48.4755859,117.20459 Z M85.3596523,131.230957 C83.4963618,133.422049 80.7618514,134.517578 77.1560391,134.517578 C74.1713236,134.517578 71.8983157,133.650643 70.3369473,131.916748 C68.7755788,130.182853 67.98628,127.616553 67.9690273,124.217773 L67.9690273,105.999023 L72.756625,105.999023 L72.756625,124.088379 C72.756625,128.332541 74.4818682,130.45459 77.9324062,130.45459 C81.5899766,130.45459 84.0225695,129.091648 85.2302578,126.365723 L85.2302578,105.999023 L90.0178555,105.999023 L90.0178555,134 L85.463168,134 L85.3596523,131.230957 Z M113.600164,126.572754 C113.600164,125.278802 113.112783,124.273848 112.138006,123.557861 C111.163229,122.841875 109.463864,122.2251 107.039861,121.70752 C104.615858,121.189939 102.692212,120.568851 101.268865,119.844238 C99.8455183,119.119625 98.7931199,118.257004 98.1116387,117.256348 C97.4301574,116.255692 97.0894219,115.065274 97.0894219,113.685059 C97.0894219,111.390451 98.0598712,109.449552 100.000799,107.862305 C101.941726,106.275057 104.421764,105.481445 107.440984,105.481445 C110.615479,105.481445 113.190405,106.300936 115.165838,107.939941 C117.141271,109.578947 118.128973,111.675117 118.128973,114.228516 L113.315496,114.228516 C113.315496,112.917311 112.759105,111.787277 111.646307,110.838379 C110.533508,109.889481 109.131748,109.415039 107.440984,109.415039 C105.698463,109.415039 104.335521,109.794593 103.352117,110.553711 C102.368714,111.312829 101.87702,112.304844 101.87702,113.529785 C101.87702,114.685715 102.334209,115.556963 103.248602,116.143555 C104.162994,116.730146 105.814914,117.29085 108.204412,117.825684 C110.59391,118.360517 112.530495,118.998857 114.014227,119.740723 C115.497958,120.482588 116.5978,121.375402 117.313787,122.419189 C118.029774,123.462977 118.387762,124.735344 118.387762,126.236328 C118.387762,128.737968 117.387121,130.743563 115.385809,132.253174 C113.384497,133.762784 110.788006,134.517578 107.596258,134.517578 C105.353408,134.517578 103.369378,134.120772 101.644109,133.327148 C99.9188403,132.533525 98.5688376,131.425056 97.5940605,130.001709 C96.6192835,128.578362 96.1319023,127.038583 96.1319023,125.382324 L100.9195,125.382324 C101.005763,126.986824 101.648417,128.259191 102.847479,129.199463 C104.04654,130.139735 105.629451,130.609863 107.596258,130.609863 C109.40779,130.609863 110.861308,130.243249 111.956854,129.51001 C113.052399,128.77677 113.600164,127.797695 113.600164,126.572754 Z M131.126809,99.21875 L131.126809,105.999023 L136.354348,105.999023 L136.354348,109.699707 L131.126809,109.699707 L131.126809,127.064453 C131.126809,128.185878 131.359716,129.026934 131.825539,129.587646 C132.291362,130.148359 133.084974,130.428711 134.206398,130.428711 C134.758485,130.428711 135.517592,130.325196 136.483742,130.118164 L136.483742,134 C135.224296,134.345054 133.999373,134.517578 132.808937,134.517578 C130.669604,134.517578 129.056502,133.870612 127.969582,132.57666 C126.882663,131.282708 126.339211,129.445324 126.339211,127.064453 L126.339211,109.699707 L121.241066,109.699707 L121.241066,105.999023 L126.339211,105.999023 L126.339211,99.21875 L131.126809,99.21875 Z M159.237926,134 C158.961883,133.447914 158.737601,132.464525 158.565074,131.049805 C156.339477,133.361665 153.682603,134.517578 150.594371,134.517578 C147.833941,134.517578 145.569559,133.736906 143.801158,132.175537 C142.032757,130.614169 141.14857,128.634452 141.14857,126.236328 C141.14857,123.320623 142.257039,121.056242 144.47401,119.443115 C146.69098,117.829989 149.809358,117.023438 153.829234,117.023438 L158.487437,117.023438 L158.487437,114.82373 C158.487437,113.150219 157.987117,111.817469 156.986461,110.825439 C155.985805,109.83341 154.510722,109.337402 152.561168,109.337402 C150.853152,109.337402 149.4212,109.768713 148.26527,110.631348 C147.109339,111.493982 146.531383,112.537754 146.531383,113.762695 L141.717906,113.762695 C141.717906,112.365227 142.213914,111.015225 143.205943,109.712646 C144.197973,108.410068 145.543663,107.379236 147.243053,106.620117 C148.942443,105.860999 150.810018,105.481445 152.845836,105.481445 C156.072089,105.481445 158.59957,106.287996 160.428355,107.901123 C162.257141,109.51425 163.206024,111.7355 163.275035,114.564941 L163.275035,127.452637 C163.275035,130.023288 163.602831,132.067701 164.258434,133.585938 L164.258434,134 L159.237926,134 Z M151.293102,130.351074 C152.794086,130.351074 154.217411,129.962895 155.563121,129.186523 C156.908831,128.410152 157.883593,127.400885 158.487437,126.158691 L158.487437,120.413574 L154.734996,120.413574 C148.869081,120.413574 145.936168,122.130191 145.936168,125.563477 C145.936168,127.064461 146.436488,128.237626 147.437145,129.083008 C148.437801,129.92839 149.723107,130.351074 151.293102,130.351074 Z M175.988203,134 L171.200605,134 L171.200605,105.999023 L175.988203,105.999023 L175.988203,134 Z M170.812422,98.5717773 C170.812422,97.7954063 171.049643,97.1398139 171.524092,96.6049805 C171.998541,96.0701471 172.701577,95.8027344 173.633223,95.8027344 C174.564868,95.8027344 175.272218,96.0701471 175.755293,96.6049805 C176.238368,97.1398139 176.479902,97.7954063 176.479902,98.5717773 C176.479902,99.3481484 176.238368,99.9951146 175.755293,100.512695 C175.272218,101.030276 174.564868,101.289062 173.633223,101.289062 C172.701577,101.289062 171.998541,101.030276 171.524092,100.512695 C171.049643,99.9951146 170.812422,99.3481484 170.812422,98.5717773 Z M188.183793,105.999023 L188.339066,109.518555 C190.4784,106.827135 193.273294,105.481445 196.723832,105.481445 C202.641505,105.481445 205.626176,108.819791 205.677934,115.496582 L205.677934,134 L200.890336,134 L200.890336,115.470703 C200.873083,113.452138 200.411581,111.959803 199.505814,110.993652 C198.600048,110.027502 197.189662,109.544434 195.274613,109.544434 C193.721871,109.544434 192.358929,109.958492 191.185746,110.786621 C190.012563,111.61475 189.098184,112.701653 188.442582,114.047363 L188.442582,134 L183.654984,134 L183.654984,105.999023 L188.183793,105.999023 Z M230.191883,134 C229.91584,133.447914 229.691558,132.464525 229.519031,131.049805 C227.293434,133.361665 224.63656,134.517578 221.548328,134.517578 C218.787898,134.517578 216.523516,133.736906 214.755115,132.175537 C212.986714,130.614169 212.102527,128.634452 212.102527,126.236328 C212.102527,123.320623 213.210996,121.056242 215.427967,119.443115 C217.644938,117.829989 220.763315,117.023438 224.783191,117.023438 L229.441395,117.023438 L229.441395,114.82373 C229.441395,113.150219 228.941074,111.817469 227.940418,110.825439 C226.939762,109.83341 225.464679,109.337402 223.515125,109.337402 C221.807109,109.337402 220.375157,109.768713 219.219227,110.631348 C218.063296,111.493982 217.48534,112.537754 217.48534,113.762695 L212.671863,113.762695 C212.671863,112.365227 213.167871,111.015225 214.1599,109.712646 C215.15193,108.410068 216.49762,107.379236 218.19701,106.620117 C219.8964,105.860999 221.763975,105.481445 223.799793,105.481445 C227.026046,105.481445 229.553527,106.287996 231.382312,107.901123 C233.211098,109.51425 234.159981,111.7355 234.228992,114.564941 L234.228992,127.452637 C234.228992,130.023288 234.556788,132.067701 235.212391,133.585938 L235.212391,134 L230.191883,134 Z M222.247059,130.351074 C223.748043,130.351074 225.171368,129.962895 226.517078,129.186523 C227.862788,128.410152 228.83755,127.400885 229.441395,126.158691 L229.441395,120.413574 L225.688953,120.413574 C219.823038,120.413574 216.890125,122.130191 216.890125,125.563477 C216.890125,127.064461 217.390446,128.237626 218.391102,129.083008 C219.391758,129.92839 220.677064,130.351074 222.247059,130.351074 Z M265.445578,120.310059 C265.445578,124.588726 264.46219,128.026273 262.495383,130.622803 C260.528576,133.219333 257.888954,134.517578 254.576437,134.517578 C251.039636,134.517578 248.305126,133.266777 246.372824,130.765137 L246.139914,134 L241.7405,134 L241.7405,94.25 L246.528098,94.25 L246.528098,109.078613 C248.460399,106.680489 251.1259,105.481445 254.52468,105.481445 C257.92346,105.481445 260.593273,106.766751 262.534201,109.337402 C264.475129,111.908053 265.445578,115.427549 265.445578,119.895996 L265.445578,120.310059 Z M260.65798,119.766602 C260.65798,116.505843 260.028267,113.986988 258.76882,112.209961 C257.509374,110.432934 255.697869,109.544434 253.33425,109.544434 C250.177008,109.544434 247.908313,111.01089 246.528098,113.943848 L246.528098,126.055176 C247.994576,128.988133 250.280524,130.45459 253.386008,130.45459 C255.680616,130.45459 257.466242,129.56609 258.742941,127.789062 C260.01964,126.012035 260.65798,123.337908 260.65798,119.766602 Z M276.683648,134 L271.896051,134 L271.896051,105.999023 L276.683648,105.999023 L276.683648,134 Z M271.507867,98.5717773 C271.507867,97.7954063 271.745088,97.1398139 272.219537,96.6049805 C272.693986,96.0701471 273.397023,95.8027344 274.328668,95.8027344 C275.260313,95.8027344 275.967663,96.0701471 276.450738,96.6049805 C276.933814,97.1398139 277.175348,97.7954063 277.175348,98.5717773 C277.175348,99.3481484 276.933814,99.9951146 276.450738,100.512695 C275.967663,101.030276 275.260313,101.289062 274.328668,101.289062 C273.397023,101.289062 272.693986,101.030276 272.219537,100.512695 C271.745088,99.9951146 271.507867,99.3481484 271.507867,98.5717773 Z M289.55209,134 L284.764492,134 L284.764492,94.25 L289.55209,94.25 L289.55209,134 Z M302.420531,134 L297.632934,134 L297.632934,105.999023 L302.420531,105.999023 L302.420531,134 Z M297.24475,98.5717773 C297.24475,97.7954063 297.481971,97.1398139 297.95642,96.6049805 C298.430869,96.0701471 299.133905,95.8027344 300.065551,95.8027344 C300.997196,95.8027344 301.704546,96.0701471 302.187621,96.6049805 C302.670696,97.1398139 302.91223,97.7954063 302.91223,98.5717773 C302.91223,99.3481484 302.670696,99.9951146 302.187621,100.512695 C301.704546,101.030276 300.997196,101.289062 300.065551,101.289062 C299.133905,101.289062 298.430869,101.030276 297.95642,100.512695 C297.481971,99.9951146 297.24475,99.3481484 297.24475,98.5717773 Z M316.582918,99.21875 L316.582918,105.999023 L321.810457,105.999023 L321.810457,109.699707 L316.582918,109.699707 L316.582918,127.064453 C316.582918,128.185878 316.815826,129.026934 317.281648,129.587646 C317.747471,130.148359 318.541083,130.428711 319.662508,130.428711 C320.214594,130.428711 320.973701,130.325196 321.939852,130.118164 L321.939852,134 C320.680405,134.345054 319.455483,134.517578 318.265047,134.517578 C316.125713,134.517578 314.512611,133.870612 313.425691,132.57666 C312.338772,131.282708 311.79532,129.445324 311.79532,127.064453 L311.79532,109.699707 L306.697176,109.699707 L306.697176,105.999023 L311.79532,105.999023 L311.79532,99.21875 L316.582918,99.21875 Z M336.568059,126.986816 L343.089543,105.999023 L348.213566,105.999023 L336.956242,138.321777 C335.21372,142.980004 332.444705,145.309082 328.649113,145.309082 L327.743352,145.231445 L325.957707,144.89502 L325.957707,141.013184 L327.251652,141.116699 C328.873405,141.116699 330.137146,140.788903 331.042912,140.133301 C331.948678,139.477699 332.694846,138.278655 333.281437,136.536133 L334.342473,133.689453 L324.353215,105.999023 L329.580754,105.999023 L336.568059,126.986816 Z M372.113047,99.21875 L372.113047,105.999023 L377.340586,105.999023 L377.340586,109.699707 L372.113047,109.699707 L372.113047,127.064453 C372.113047,128.185878 372.345955,129.026934 372.811777,129.587646 C373.2776,130.148359 374.071212,130.428711 375.192637,130.428711 C375.744723,130.428711 376.50383,130.325196 377.46998,130.118164 L377.46998,134 C376.210534,134.345054 374.985611,134.517578 373.795176,134.517578 C371.655842,134.517578 370.04274,133.870612 368.95582,132.57666 C367.868901,131.282708 367.325449,129.445324 367.325449,127.064453 L367.325449,109.699707 L362.227305,109.699707 L362.227305,105.999023 L367.325449,105.999023 L367.325449,99.21875 L372.113047,99.21875 Z M387.724652,109.38916 C389.846733,106.784004 392.607122,105.481445 396.005902,105.481445 C401.923575,105.481445 404.908246,108.819791 404.960004,115.496582 L404.960004,134 L400.172406,134 L400.172406,115.470703 C400.155154,113.452138 399.693651,111.959803 398.787885,110.993652 C397.882119,110.027502 396.471732,109.544434 394.556684,109.544434 C393.003941,109.544434 391.640999,109.958492 390.467816,110.786621 C389.294633,111.61475 388.380255,112.701653 387.724652,114.047363 L387.724652,134 L382.937055,134 L382.937055,94.25 L387.724652,94.25 L387.724652,109.38916 Z M425.669754,110.294922 C424.945141,110.174153 424.160155,110.11377 423.314773,110.11377 C420.174784,110.11377 418.044108,111.450833 416.922684,114.125 L416.922684,134 L412.135086,134 L412.135086,105.999023 L416.793289,105.999023 L416.870926,109.233887 C418.440921,106.732247 420.666484,105.481445 423.547684,105.481445 C424.479329,105.481445 425.186679,105.602212 425.669754,105.84375 L425.669754,110.294922 Z M428.290148,119.740723 C428.290148,116.997545 428.829287,114.530447 429.90758,112.339355 C430.985873,110.148264 432.486835,108.457525 434.41051,107.26709 C436.334185,106.076654 438.529557,105.481445 440.996691,105.481445 C444.809536,105.481445 447.893408,106.801256 450.2484,109.440918 C452.603393,112.08058 453.780871,115.591449 453.780871,119.973633 L453.780871,120.310059 C453.780871,123.035984 453.258985,125.481516 452.215197,127.646729 C451.171409,129.811941 449.679074,131.498366 447.738146,132.706055 C445.797219,133.913743 443.567342,134.517578 441.048449,134.517578 C437.252857,134.517578 434.177611,133.197767 431.822619,130.558105 C429.467627,127.918444 428.290148,124.424826 428.290148,120.077148 L428.290148,119.740723 Z M433.103625,120.310059 C433.103625,123.415543 433.823914,125.908519 435.264514,127.789062 C436.705113,129.669606 438.633073,130.609863 441.048449,130.609863 C443.481079,130.609863 445.413351,129.656666 446.845324,127.750244 C448.277298,125.843822 448.993273,123.174008 448.993273,119.740723 C448.993273,116.669744 448.264358,114.18108 446.806506,112.274658 C445.348653,110.368236 443.412068,109.415039 440.996691,109.415039 C438.633073,109.415039 436.726679,110.355297 435.277453,112.23584 C433.828227,114.116383 433.103625,116.807762 433.103625,120.310059 Z M477.078512,131.230957 C475.215221,133.422049 472.480711,134.517578 468.874898,134.517578 C465.890183,134.517578 463.617175,133.650643 462.055807,131.916748 C460.494438,130.182853 459.705139,127.616553 459.687887,124.217773 L459.687887,105.999023 L464.475484,105.999023 L464.475484,124.088379 C464.475484,128.332541 466.200728,130.45459 469.651266,130.45459 C473.308836,130.45459 475.741429,129.091648 476.949117,126.365723 L476.949117,105.999023 L481.736715,105.999023 L481.736715,134 L477.182027,134 L477.078512,131.230957 Z M487.876641,119.766602 C487.876641,115.401671 488.885908,111.929619 490.904473,109.350342 C492.923037,106.771065 495.597164,105.481445 498.926934,105.481445 C502.342966,105.481445 505.008467,106.689116 506.923516,109.104492 L507.156426,105.999023 L511.529961,105.999023 L511.529961,133.327148 C511.529961,136.950213 510.455997,139.805491 508.308037,141.893066 C506.160077,143.980642 503.274608,145.024414 499.651543,145.024414 C497.632978,145.024414 495.657575,144.593103 493.725273,143.730469 C491.792972,142.867834 490.317889,141.686043 489.29998,140.185059 L491.784355,137.3125 C493.837426,139.848645 496.347654,141.116699 499.315117,141.116699 C501.64423,141.116699 503.460049,140.461107 504.762627,139.149902 C506.065205,137.838698 506.716484,135.992688 506.716484,133.611816 L506.716484,131.205078 C504.801436,133.413422 502.187692,134.517578 498.875176,134.517578 C495.597165,134.517578 492.944603,133.197767 490.917412,130.558105 C488.890221,127.918444 487.876641,124.321312 487.876641,119.766602 Z M492.690117,120.310059 C492.690117,123.467301 493.337083,125.947338 494.631035,127.750244 C495.924987,129.55315 497.736492,130.45459 500.065605,130.45459 C503.084826,130.45459 505.301764,129.083022 506.716484,126.339844 L506.716484,113.555664 C505.250006,110.881497 503.050321,109.544434 500.117363,109.544434 C497.78825,109.544434 495.968119,110.450186 494.656914,112.261719 C493.34571,114.073251 492.690117,116.756004 492.690117,120.310059 Z M523.544398,109.38916 C525.666479,106.784004 528.426868,105.481445 531.825648,105.481445 C537.743321,105.481445 540.727992,108.819791 540.77975,115.496582 L540.77975,134 L535.992152,134 L535.992152,115.470703 C535.9749,113.452138 535.513397,111.959803 534.607631,110.993652 C533.701865,110.027502 532.291478,109.544434 530.37643,109.544434 C528.823688,109.544434 527.460745,109.958492 526.287562,110.786621 C525.11438,111.61475 524.200001,112.701653 523.544398,114.047363 L523.544398,134 L518.756801,134 L518.756801,94.25 L523.544398,94.25 L523.544398,109.38916 Z M586.831574,100.40918 L574.720246,100.40918 L574.720246,134 L569.777375,134 L569.777375,100.40918 L557.691926,100.40918 L557.691926,96.3203125 L586.831574,96.3203125 L586.831574,100.40918 Z M603.271305,110.294922 C602.546692,110.174153 601.761706,110.11377 600.916324,110.11377 C597.776335,110.11377 595.645659,111.450833 594.524234,114.125 L594.524234,134 L589.736637,134 L589.736637,105.999023 L594.39484,105.999023 L594.472477,109.233887 C596.042471,106.732247 598.268035,105.481445 601.149234,105.481445 C602.08088,105.481445 602.788229,105.602212 603.271305,105.84375 L603.271305,110.294922 Z M623.929297,134 C623.653254,133.447914 623.428972,132.464525 623.256445,131.049805 C621.030848,133.361665 618.373974,134.517578 615.285742,134.517578 C612.525312,134.517578 610.26093,133.736906 608.492529,132.175537 C606.724129,130.614169 605.839941,128.634452 605.839941,126.236328 C605.839941,123.320623 606.94841,121.056242 609.165381,119.443115 C611.382352,117.829989 614.500729,117.023438 618.520605,117.023438 L623.178809,117.023438 L623.178809,114.82373 C623.178809,113.150219 622.678488,111.817469 621.677832,110.825439 C620.677176,109.83341 619.202093,109.337402 617.252539,109.337402 C615.544523,109.337402 614.112571,109.768713 612.956641,110.631348 C611.80071,111.493982 611.222754,112.537754 611.222754,113.762695 L606.409277,113.762695 C606.409277,112.365227 606.905285,111.015225 607.897314,109.712646 C608.889344,108.410068 610.235034,107.379236 611.934424,106.620117 C613.633814,105.860999 615.50139,105.481445 617.537207,105.481445 C620.76346,105.481445 623.290941,106.287996 625.119727,107.901123 C626.948512,109.51425 627.897395,111.7355 627.966406,114.564941 L627.966406,127.452637 C627.966406,130.023288 628.294202,132.067701 628.949805,133.585938 L628.949805,134 L623.929297,134 Z M615.984473,130.351074 C617.485457,130.351074 618.908782,129.962895 620.254492,129.186523 C621.600202,128.410152 622.574964,127.400885 623.178809,126.158691 L623.178809,120.413574 L619.426367,120.413574 C613.560452,120.413574 610.627539,122.130191 610.627539,125.563477 C610.627539,127.064461 611.12786,128.237626 612.128516,129.083008 C613.129172,129.92839 614.414478,130.351074 615.984473,130.351074 Z M640.006723,105.999023 L640.161996,109.518555 C642.30133,106.827135 645.096224,105.481445 648.546762,105.481445 C654.464435,105.481445 657.449105,108.819791 657.500863,115.496582 L657.500863,134 L652.713266,134 L652.713266,115.470703 C652.696013,113.452138 652.23451,111.959803 651.328744,110.993652 C650.422978,110.027502 649.012592,109.544434 647.097543,109.544434 C645.544801,109.544434 644.181859,109.958492 643.008676,110.786621 C641.835493,111.61475 640.921114,112.701653 640.265512,114.047363 L640.265512,134 L635.477914,134 L635.477914,105.999023 L640.006723,105.999023 Z M681.031414,126.572754 C681.031414,125.278802 680.544033,124.273848 679.569256,123.557861 C678.594479,122.841875 676.895114,122.2251 674.471111,121.70752 C672.047108,121.189939 670.123462,120.568851 668.700115,119.844238 C667.276768,119.119625 666.22437,118.257004 665.542889,117.256348 C664.861407,116.255692 664.520672,115.065274 664.520672,113.685059 C664.520672,111.390451 665.491121,109.449552 667.432049,107.862305 C669.372976,106.275057 671.853014,105.481445 674.872234,105.481445 C678.046729,105.481445 680.621655,106.300936 682.597088,107.939941 C684.572521,109.578947 685.560223,111.675117 685.560223,114.228516 L680.746746,114.228516 C680.746746,112.917311 680.190355,111.787277 679.077557,110.838379 C677.964758,109.889481 676.562998,109.415039 674.872234,109.415039 C673.129713,109.415039 671.766771,109.794593 670.783367,110.553711 C669.799964,111.312829 669.30827,112.304844 669.30827,113.529785 C669.30827,114.685715 669.765459,115.556963 670.679852,116.143555 C671.594244,116.730146 673.246164,117.29085 675.635662,117.825684 C678.02516,118.360517 679.961745,118.998857 681.445477,119.740723 C682.929208,120.482588 684.02905,121.375402 684.745037,122.419189 C685.461024,123.462977 685.819012,124.735344 685.819012,126.236328 C685.819012,128.737968 684.818371,130.743563 682.817059,132.253174 C680.815746,133.762784 678.219256,134.517578 675.027508,134.517578 C672.784658,134.517578 670.800628,134.120772 669.075359,133.327148 C667.35009,132.533525 666.000088,131.425056 665.025311,130.001709 C664.050534,128.578362 663.563152,127.038583 663.563152,125.382324 L668.35075,125.382324 C668.437013,126.986824 669.079667,128.259191 670.278728,129.199463 C671.47779,130.139735 673.060701,130.609863 675.027508,130.609863 C676.83904,130.609863 678.292558,130.243249 679.388103,129.51001 C680.483649,128.77677 681.031414,127.797695 681.031414,126.572754 Z M715.715773,120.310059 C715.715773,124.571473 714.741011,128.004707 712.791457,130.609863 C710.841903,133.21502 708.202281,134.517578 704.872512,134.517578 C701.473732,134.517578 698.799605,133.439301 696.850051,131.282715 L696.850051,144.765625 L692.062453,144.765625 L692.062453,105.999023 L696.435988,105.999023 L696.668898,109.104492 C698.618452,106.689116 701.327084,105.481445 704.794875,105.481445 C708.15915,105.481445 710.820337,106.749499 712.778518,109.285645 C714.736698,111.82179 715.715773,115.349912 715.715773,119.870117 L715.715773,120.310059 Z M710.928176,119.766602 C710.928176,116.609359 710.255331,114.116383 708.909621,112.287598 C707.563911,110.458812 705.717901,109.544434 703.371535,109.544434 C700.473083,109.544434 698.299277,110.82974 696.850051,113.400391 L696.850051,126.779785 C698.282024,129.333183 700.473083,130.609863 703.423293,130.609863 C705.717901,130.609863 707.542345,129.699798 708.896682,127.879639 C710.251018,126.05948 710.928176,123.355161 710.928176,119.766602 Z M739.091051,134 C738.815008,133.447914 738.590726,132.464525 738.418199,131.049805 C736.192602,133.361665 733.535728,134.517578 730.447496,134.517578 C727.687066,134.517578 725.422684,133.736906 723.654283,132.175537 C721.885882,130.614169 721.001695,128.634452 721.001695,126.236328 C721.001695,123.320623 722.110164,121.056242 724.327135,119.443115 C726.544105,117.829989 729.662482,117.023438 733.682359,117.023438 L738.340562,117.023438 L738.340562,114.82373 C738.340562,113.150219 737.840242,111.817469 736.839586,110.825439 C735.83893,109.83341 734.363847,109.337402 732.414293,109.337402 C730.706277,109.337402 729.274325,109.768713 728.118395,110.631348 C726.962464,111.493982 726.384508,112.537754 726.384508,113.762695 L721.571031,113.762695 C721.571031,112.365227 722.067039,111.015225 723.059068,109.712646 C724.051098,108.410068 725.396788,107.379236 727.096178,106.620117 C728.795568,105.860999 730.663143,105.481445 732.698961,105.481445 C735.925214,105.481445 738.452695,106.287996 740.28148,107.901123 C742.110266,109.51425 743.059149,111.7355 743.12816,114.564941 L743.12816,127.452637 C743.12816,130.023288 743.455956,132.067701 744.111559,133.585938 L744.111559,134 L739.091051,134 Z M731.146227,130.351074 C732.647211,130.351074 734.070536,129.962895 735.416246,129.186523 C736.761956,128.410152 737.736718,127.400885 738.340562,126.158691 L738.340562,120.413574 L734.588121,120.413574 C728.722206,120.413574 725.789293,122.130191 725.789293,125.563477 C725.789293,127.064461 726.289613,128.237626 727.29027,129.083008 C728.290926,129.92839 729.576232,130.351074 731.146227,130.351074 Z M764.174336,110.294922 C763.449723,110.174153 762.664737,110.11377 761.819355,110.11377 C758.679366,110.11377 756.54869,111.450833 755.427266,114.125 L755.427266,134 L750.639668,134 L750.639668,105.999023 L755.297871,105.999023 L755.375508,109.233887 C756.945503,106.732247 759.171066,105.481445 762.052266,105.481445 C762.983911,105.481445 763.691261,105.602212 764.174336,105.84375 L764.174336,110.294922 Z M779.708305,134.517578 C775.912713,134.517578 772.824527,133.27109 770.443656,130.778076 C768.062785,128.285062 766.872367,124.95103 766.872367,120.775879 L766.872367,119.895996 C766.872367,117.118313 767.402879,114.638276 768.46392,112.455811 C769.52496,110.273345 771.008669,108.565354 772.915092,107.331787 C774.821514,106.09822 776.887493,105.481445 779.11309,105.481445 C782.753407,105.481445 785.582806,106.680489 787.601371,109.078613 C789.619936,111.476737 790.629203,114.909971 790.629203,119.378418 L790.629203,121.371094 L771.659965,121.371094 C771.728976,124.131524 772.535527,126.361401 774.079643,128.060791 C775.623758,129.760181 777.586222,130.609863 779.967094,130.609863 C781.657857,130.609863 783.089809,130.264815 784.262992,129.574707 C785.436175,128.884599 786.462695,127.970221 787.342582,126.831543 L790.266898,129.108887 C787.920533,132.714699 784.401036,134.517578 779.708305,134.517578 Z M779.11309,109.415039 C777.180788,109.415039 775.55906,110.118076 774.247855,111.52417 C772.936651,112.930264 772.125787,114.901355 771.815238,117.4375 L785.841605,117.4375 L785.841605,117.075195 C785.703584,114.642566 785.047992,112.757738 783.874809,111.420654 C782.701626,110.083571 781.114402,109.415039 779.11309,109.415039 Z M800.702723,105.999023 L800.857996,109.518555 C802.99733,106.827135 805.792224,105.481445 809.242762,105.481445 C815.160435,105.481445 818.145105,108.819791 818.196863,115.496582 L818.196863,134 L813.409266,134 L813.409266,115.470703 C813.392013,113.452138 812.93051,111.959803 812.024744,110.993652 C811.118978,110.027502 809.708592,109.544434 807.793543,109.544434 C806.240801,109.544434 804.877859,109.958492 803.704676,110.786621 C802.531493,111.61475 801.617114,112.701653 800.961512,114.047363 L800.961512,134 L796.173914,134 L796.173914,105.999023 L800.702723,105.999023 Z M836.655148,130.609863 C838.363165,130.609863 839.8555,130.09229 841.132199,129.057129 C842.408898,128.021967 843.116248,126.728035 843.254269,125.175293 L847.783078,125.175293 C847.696815,126.779793 847.144737,128.306633 846.126828,129.755859 C845.108919,131.205085 843.75029,132.360998 842.0509,133.223633 C840.35151,134.086267 838.552944,134.517578 836.655148,134.517578 C832.842304,134.517578 829.810189,133.245211 827.558713,130.700439 C825.307237,128.155668 824.181516,124.67499 824.181516,120.258301 L824.181516,119.456055 C824.181516,116.73013 824.681836,114.306163 825.682492,112.184082 C826.683148,110.062001 828.119413,108.414394 829.99133,107.241211 C831.863247,106.068028 834.075871,105.481445 836.629269,105.481445 C839.769259,105.481445 842.378689,106.421703 844.457639,108.302246 C846.536588,110.182789 847.645057,112.624008 847.783078,115.625977 L843.254269,115.625977 C843.116248,113.814444 842.430464,112.326422 841.196896,111.161865 C839.963329,109.997309 838.440802,109.415039 836.629269,109.415039 C834.19664,109.415039 832.311812,110.2906 830.974728,112.041748 C829.637645,113.792896 828.969113,116.32469 828.969113,119.637207 L828.969113,120.542969 C828.969113,123.769222 829.633332,126.253572 830.961789,127.996094 C832.290246,129.738615 834.188014,130.609863 836.655148,130.609863 Z M862.333648,126.986816 L868.855133,105.999023 L873.979156,105.999023 L862.721832,138.321777 C860.97931,142.980004 858.210295,145.309082 854.414703,145.309082 L853.508941,145.231445 L851.723297,144.89502 L851.723297,141.013184 L853.017242,141.116699 C854.638995,141.116699 855.902736,140.788903 856.808502,140.133301 C857.714268,139.477699 858.460436,138.278655 859.047027,136.536133 L860.108062,133.689453 L850.118805,105.999023 L855.346344,105.999023 L862.333648,126.986816 Z" id="Sustainability-through-Transparency"></path>
            </g>
            <g id="Group-4">
                <path d="M160.99388,68.2242476 C235.897772,188.036196 98.2072525,226.249943 79.7941315,225.998809 C61.3775725,225.747665 68.7094376,217.448989 68.7094376,217.448989 C68.7094376,217.448989 78.9767643,190.942363 133.216273,153.803058 C186.439414,117.355186 161.996637,70.1801552 160.857986,68.5210286 C133.804453,40.601579 97.6926214,35.9455128 89.4116725,27.2517627 C81.0815247,18.5035899 91.7078384,16.0151962 91.7078384,16.0151962 C91.7078384,16.0151962 79.6977609,12.110801 79.3945457,5.32729553 C79.094087,-1.45343895 87.3029488,0.511228294 87.3029488,0.511228294 C123.505859,7.73085075 157.221372,61.0402785 160.993854,68.2242064 Z M132.943576,211.567054 C132.943576,211.567054 158.661401,223.028981 170.030962,208.364735 C181.400523,193.700488 154.640556,199.764914 132.943576,211.567054 Z" id="Combined-Shape" fill="#EF4324"></path>
                <g id="Group-2" transform="translate(0.000000, 65.000000)" fill="#8ABBC7">
                    <path d="M25.494903,80.7182571 C25.4458557,80.7021121 66.2161932,10.3176226 109.071151,1.308724 C109.071151,1.308724 118.16964,-0.985637697 117.83461,6.93507194 C117.499581,14.856835 104.190853,19.4171159 104.190853,19.4171159 C104.190853,19.4171159 115.967591,22.3266783 106.735885,32.5438565 C97.5031854,42.7610347 55.7934691,47.7272196 25.7551333,80.8616791 L25.494903,80.7182571 Z" id="Fill-1" transform="translate(71.669250, 40.930840) rotate(1.000000) translate(-71.669250, -40.930840) "></path>
                    <path d="M57.5621333,175.542843 C119.605989,217.273997 131.352813,247.05758 131.352813,247.05758 C131.352813,247.05758 139.737337,256.381856 118.672915,256.663351 C97.6628577,256.94412 -58.5889447,212.529453 24.9016571,79.7580872 C25.1176928,79.4145352 25.4544462,79.1443647 25.6736972,78.7996279 C25.7033329,78.8049724 25.6528304,79.1342213 25.1929145,79.9156791 C20.8782269,87.2469031 0.67910166,137.282897 57.5621333,175.542843 Z" id="Fill-3"></path>
                </g>
            </g>
        </g>
    </g>
</svg>