<?xml version="1.0" encoding="UTF-8"?>
<svg width="285px" height="57px" viewBox="0 0 285 57" version="1.1" xmlns="http://www.w3.org/2000/svg" xmlns:xlink="http://www.w3.org/1999/xlink">
    <!-- Generator: Sketch 46 (44423) - http://www.bohemiancoding.com/sketch -->
    <title>Slice 1</title>
    <desc>Created with Sketch.</desc>
    <defs></defs>
    <g id="Page-1" stroke="none" stroke-width="1" fill="none" fill-rule="evenodd">
        <g id="gfw_logo" fill-rule="nonzero">
            <path d="M55.422,33.424 C55.125,33.881 54.61,34.3 53.877,34.684 C53.143,35.066 52.194,35.257 51.029,35.257 C49.539,35.257 48.306,34.78 47.333,33.827 C46.359,32.873 45.873,31.64 45.873,30.127 L45.873,27.557 C45.873,26.045 46.327,24.812 47.233,23.857 C48.143,22.905 49.313,22.427 50.746,22.427 C52.173,22.427 53.296,22.779 54.111,23.482 C54.927,24.184 55.344,25.089 55.361,26.196 L55.344,26.248 L53.734,26.248 C53.684,25.523 53.407,24.926 52.908,24.458 C52.408,23.99 51.688,23.756 50.745,23.756 C49.791,23.756 49.023,24.113 48.441,24.826 C47.859,25.54 47.567,26.446 47.567,27.541 L47.567,30.128 C47.567,31.236 47.892,32.148 48.543,32.864 C49.193,33.581 50.021,33.939 51.026,33.939 C51.733,33.939 52.313,33.845 52.764,33.656 C53.214,33.468 53.537,33.254 53.731,33.014 L53.731,30.179 L50.999,30.179 L50.999,28.85 L55.419,28.85 L55.419,33.424 L55.422,33.424 Z M60.03,33.758 L65.93,33.758 L65.93,35.078 L58.343,35.078 L58.343,22.608 L60.03,22.608 L60.03,33.758 L60.03,33.758 Z M77.037,29.956 C77.037,31.48 76.565,32.746 75.62,33.75 C74.675,34.754 73.45,35.257 71.942,35.257 C70.486,35.257 69.302,34.754 68.392,33.75 C67.482,32.745 67.026,31.48 67.026,29.956 L67.026,27.738 C67.026,26.218 67.481,24.955 68.392,23.944 C69.302,22.934 70.486,22.428 71.942,22.428 C73.449,22.428 74.675,22.932 75.62,23.94 C76.565,24.947 77.037,26.213 77.037,27.738 L77.037,29.956 L77.037,29.956 Z M75.35,27.72 C75.35,26.58 75.042,25.643 74.425,24.912 C73.809,24.182 72.981,23.816 71.942,23.816 C70.96,23.816 70.176,24.181 69.592,24.912 C69.006,25.642 68.712,26.579 68.712,27.722 L68.712,29.956 C68.712,31.109 69.006,32.051 69.592,32.782 C70.176,33.512 70.96,33.878 71.942,33.878 C72.986,33.878 73.816,33.514 74.429,32.786 C75.042,32.058 75.349,31.116 75.349,29.956 L75.349,27.72 L75.35,27.72 Z M79.555,35.077 L79.555,22.607 L83.623,22.607 C84.923,22.607 85.943,22.889 86.68,23.452 C87.416,24.014 87.785,24.858 87.785,25.982 C87.785,26.536 87.608,27.032 87.255,27.468 C86.9,27.905 86.435,28.228 85.858,28.44 C86.611,28.6 87.204,28.968 87.635,29.545 C88.065,30.121 88.281,30.792 88.281,31.557 C88.281,32.699 87.913,33.571 87.173,34.173 C86.433,34.776 85.431,35.077 84.163,35.077 L79.556,35.077 L79.555,35.077 Z M81.242,29.227 L81.242,33.757 L84.162,33.757 C84.927,33.757 85.524,33.567 85.952,33.189 C86.38,32.809 86.594,32.269 86.594,31.573 C86.594,30.843 86.416,30.269 86.059,29.853 C85.701,29.435 85.152,29.227 84.409,29.227 L81.241,29.227 L81.242,29.227 Z M81.242,27.909 L83.974,27.909 C84.602,27.909 85.114,27.735 85.507,27.389 C85.901,27.045 86.097,26.564 86.097,25.947 C86.097,25.273 85.885,24.77 85.46,24.437 C85.034,24.102 84.422,23.935 83.623,23.935 L81.243,23.935 L81.243,27.908 L81.242,27.909 Z M97.522,31.865 L92.298,31.865 L91.116,35.075 L89.396,35.075 L94.216,22.607 L95.663,22.607 L100.407,35.077 L98.687,35.077 L97.521,31.865 L97.522,31.865 Z M92.82,30.452 L97.016,30.452 L94.961,24.774 L94.911,24.774 L92.821,30.452 L92.82,30.452 Z M103.807,33.757 L109.707,33.757 L109.707,35.077 L102.12,35.077 L102.12,22.607 L103.807,22.607 L103.807,33.757 Z M123.324,29.561 L117.638,29.561 L117.638,35.076 L115.951,35.076 L115.951,22.606 L124.198,22.606 L124.198,23.936 L117.638,23.936 L117.638,28.234 L123.325,28.234 L123.325,29.561 L123.324,29.561 Z M127.948,35.076 L126.253,35.076 L126.253,22.606 L127.948,22.606 L127.948,35.076 Z M137.916,31.933 C137.916,31.363 137.702,30.883 137.274,30.499 C136.846,30.113 136.087,29.789 134.996,29.527 C133.676,29.213 132.648,28.75 131.909,28.139 C131.169,27.529 130.799,26.761 130.799,25.836 C130.799,24.866 131.197,24.054 131.994,23.404 C132.79,22.754 133.822,22.427 135.089,22.427 C136.454,22.427 137.539,22.801 138.349,23.549 C139.156,24.297 139.545,25.165 139.517,26.153 L139.5,26.203 L137.89,26.203 C137.89,25.473 137.65,24.883 137.167,24.431 C136.685,23.981 135.992,23.755 135.09,23.755 C134.25,23.755 133.607,23.945 133.16,24.325 C132.71,24.705 132.487,25.199 132.487,25.81 C132.487,26.353 132.73,26.806 133.215,27.168 C133.7,27.531 134.488,27.848 135.579,28.123 C136.891,28.449 137.889,28.928 138.575,29.563 C139.26,30.196 139.603,30.981 139.603,31.917 C139.603,32.922 139.191,33.73 138.369,34.34 C137.547,34.95 136.474,35.257 135.149,35.257 C133.905,35.257 132.804,34.92 131.849,34.247 C130.892,33.573 130.429,32.671 130.456,31.54 L130.474,31.49 L132.084,31.49 C132.084,32.288 132.378,32.896 132.966,33.313 C133.554,33.73 134.282,33.938 135.149,33.938 C135.999,33.938 136.674,33.758 137.169,33.398 C137.667,33.038 137.915,32.551 137.915,31.934 L137.916,31.933 Z M151.49,35.076 L149.803,35.076 L149.803,29.57 L143.748,29.57 L143.748,35.077 L142.061,35.077 L142.061,22.607 L143.749,22.607 L143.749,28.243 L149.804,28.243 L149.804,22.608 L151.491,22.608 L151.491,35.078 L151.49,35.076 Z M156.354,35.076 L154.659,35.076 L154.659,22.606 L156.353,22.606 L156.353,35.076 L156.354,35.076 Z M168.96,35.076 L167.273,35.076 L161.27,25.433 L161.218,25.45 L161.218,35.077 L159.531,35.077 L159.531,22.607 L161.219,22.607 L167.222,32.234 L167.275,32.217 L167.275,22.607 L168.962,22.607 L168.962,35.077 L168.96,35.076 Z M181.078,33.423 C180.781,33.88 180.265,34.299 179.532,34.683 C178.798,35.065 177.849,35.256 176.684,35.256 C175.194,35.256 173.964,34.779 172.989,33.826 C172.015,32.872 171.529,31.639 171.529,30.126 L171.529,27.556 C171.529,26.044 171.982,24.811 172.889,23.856 C173.797,22.904 174.969,22.426 176.401,22.426 C177.828,22.426 178.951,22.778 179.766,23.481 C180.583,24.183 180.999,25.088 181.016,26.195 L180.999,26.247 L179.389,26.247 C179.339,25.522 179.063,24.925 178.563,24.457 C178.063,23.989 177.343,23.755 176.401,23.755 C175.447,23.755 174.679,24.112 174.097,24.825 C173.515,25.539 173.224,26.445 173.224,27.54 L173.224,30.127 C173.224,31.235 173.549,32.147 174.2,32.863 C174.852,33.58 175.68,33.938 176.684,33.938 C177.392,33.938 177.972,33.844 178.424,33.655 C178.874,33.467 179.196,33.253 179.39,33.013 L179.39,30.178 L176.66,30.178 L176.66,28.85 L181.078,28.85 L181.078,33.424 L181.078,33.423 Z M190.858,30.76 L191.088,32.32 L191.14,32.328 L191.474,30.761 L193.76,22.609 L195.25,22.609 L197.554,30.762 L197.897,32.364 L197.947,32.364 L198.197,30.764 L200.055,22.61 L201.742,22.61 L198.736,35.08 L197.229,35.08 L194.769,26.43 L194.547,25.308 L194.497,25.308 L194.282,26.43 L191.782,35.08 L190.274,35.08 L187.277,22.61 L188.955,22.61 L190.855,30.763 L190.858,30.76 Z M210.238,31.866 L205.013,31.866 L203.831,35.076 L202.111,35.076 L206.931,22.608 L208.381,22.608 L213.124,35.078 L211.404,35.078 L210.238,31.866 Z M205.535,30.453 L209.732,30.453 L207.676,24.775 L207.626,24.775 L205.536,30.453 L205.535,30.453 Z M223.279,23.936 L219.271,23.936 L219.271,35.076 L217.584,35.076 L217.584,23.936 L213.584,23.936 L213.584,22.608 L223.278,22.608 L223.278,23.936 L223.279,23.936 Z M233.683,31.086 L233.7,31.138 C233.724,32.308 233.313,33.288 232.468,34.075 C231.623,34.863 230.508,35.257 229.12,35.257 C227.71,35.257 226.56,34.757 225.673,33.757 C224.785,32.759 224.341,31.492 224.341,29.957 L224.341,27.737 C224.341,26.202 224.786,24.933 225.674,23.931 C226.562,22.931 227.711,22.429 229.121,22.429 C230.531,22.429 231.653,22.805 232.486,23.555 C233.32,24.305 233.726,25.301 233.702,26.54 L233.686,26.59 L232.068,26.59 C232.068,25.717 231.811,25.026 231.298,24.518 C230.783,24.01 230.058,23.756 229.122,23.756 C228.18,23.756 227.429,24.136 226.87,24.896 C226.31,25.654 226.03,26.596 226.03,27.721 L226.03,29.957 C226.03,31.093 226.31,32.041 226.87,32.8 C227.43,33.558 228.18,33.938 229.122,33.938 C230.058,33.938 230.782,33.685 231.297,33.18 C231.811,32.675 232.067,31.977 232.067,31.086 L233.687,31.086 L233.683,31.086 Z M245.407,35.076 L243.72,35.076 L243.72,29.57 L237.666,29.57 L237.666,35.077 L235.979,35.077 L235.979,22.607 L237.665,22.607 L237.665,28.243 L243.72,28.243 L243.72,22.608 L245.408,22.608 L245.408,35.078 L245.407,35.076 Z" id="Shape" fill="#FFFFFF"></path>
            <path d="M5.337,25.446 C5.337,25.446 0.231,35.156 10.877,42.416 C21.527,49.678 23.542,54.86 23.542,54.86 C23.542,54.86 24.982,56.482 21.366,56.53 C17.751,56.58 -9.371,48.872 5.336,25.446 L5.337,25.446 Z M5.457,25.239 C5.457,25.239 10.87,13.312 20.753,13.217 C30.636,13.121 11.269,15.291 5.457,25.237 L5.457,25.239 Z" id="Shape" fill="#8ABAC6"></path>
            <path d="M23.884,37.342 C23.884,37.342 28.427,39.358 30.434,36.778 C32.444,34.198 27.717,35.265 23.884,37.342 Z M28.866,12.214 C28.866,12.214 22.62,1.842 15.963,0.52 C15.963,0.52 14.55,0.183 14.603,1.346 C14.653,2.508 16.721,3.178 16.721,3.178 C16.721,3.178 14.893,3.604 16.327,5.104 C17.761,6.604 24.202,7.352 28.867,12.214 L28.866,12.214 Z M28.866,12.214 C28.866,12.214 33.411,20.854 23.936,27.318 C14.458,33.78 12.664,38.393 12.664,38.393 C12.664,38.393 11.384,39.837 14.601,39.88 C17.819,39.924 41.958,33.064 28.867,12.214 L28.866,12.214 Z" id="Shape" fill="#EF4323"></path>
        </g>
    </g>
</svg>