<svg width="156" height="99" viewBox="0 0 156 99" xmlns="http://www.w3.org/2000/svg"><title>4B72FF8A-37E1-4BFF-B748-8EA55846C9E6</title><g fill="none" fill-rule="evenodd"><path d="M7.606 44.132s-8.955 17.066 9.717 29.828C35.996 86.723 39.532 95.83 39.532 95.83s2.522 2.852-3.817 2.938c-6.34.086-53.902-13.461-28.109-54.637zm.21-.363s9.494-20.963 26.825-21.13c17.33-.168-16.633 3.646-26.825 21.13z" fill="#8ABAC6"/><path d="M40.132 65.04s7.967 3.544 11.489-.99c3.522-4.534-4.768-2.659-11.49.99zm8.737-44.165S37.913 2.645 26.24.321c0 0-2.477-.592-2.387 1.451.092 2.044 3.717 3.22 3.717 3.22s-3.208.75-.693 3.386c2.514 2.635 13.81 3.951 21.992 12.497zm0 0s7.97 15.188-8.649 26.548C23.601 58.78 20.455 66.888 20.455 66.888s-2.246 2.538 3.397 2.615c5.642.076 47.974-11.982 25.017-48.628z" fill="#EF4323"/><path d="M84.06 28.414c-.378.582-1.033 1.116-1.965 1.603-.933.487-2.14.73-3.62.73-1.895 0-3.461-.606-4.699-1.82s-1.856-2.784-1.856-4.71v-3.272c0-1.926.577-3.496 1.73-4.71 1.155-1.214 2.643-1.821 4.465-1.821 1.815 0 3.241.447 4.279 1.341 1.038.894 1.568 2.046 1.59 3.457l-.022.065h-2.047c-.065-.923-.416-1.683-1.05-2.279-.636-.596-1.552-.894-2.75-.894-1.212 0-2.189.454-2.929 1.363-.74.909-1.11 2.06-1.11 3.457v3.292c0 1.41.413 2.572 1.24 3.484.828.912 1.88 1.369 3.158 1.369.9 0 1.637-.12 2.21-.36.574-.24.984-.513 1.23-.818v-3.61h-3.472v-1.69h5.618v5.823zm5.858.426h7.502v1.679h-9.647V14.643h2.145V28.84zm21.623-4.842c0 1.941-.6 3.551-1.802 4.83-1.2 1.28-2.76 1.92-4.676 1.92-1.851 0-3.355-.64-4.513-1.92-1.158-1.279-1.737-2.889-1.737-4.83v-2.824c0-1.933.58-3.543 1.737-4.83 1.158-1.287 2.662-1.93 4.513-1.93 1.916 0 3.475.641 4.676 1.925 1.202 1.283 1.802 2.894 1.802 4.835v2.824zm-2.145-2.846c0-1.453-.391-2.645-1.175-3.576-.784-.93-1.837-1.396-3.158-1.396-1.249 0-2.245.466-2.989 1.396-.744.93-1.116 2.123-1.116 3.576v2.846c0 1.469.372 2.668 1.116 3.599.744.93 1.74 1.395 2.989 1.395 1.328 0 2.383-.463 3.163-1.39.78-.927 1.17-2.128 1.17-3.604v-2.846zm5.347 9.367V14.643h5.171c1.655 0 2.951.358 3.887 1.074.937.716 1.405 1.79 1.405 3.222 0 .705-.225 1.336-.675 1.892-.45.556-1.042.968-1.775 1.237.958.204 1.711.673 2.26 1.407.548.734.822 1.588.822 2.562 0 1.454-.47 2.565-1.41 3.331-.94.767-2.216 1.15-3.828 1.15h-5.857zm2.144-7.447v5.768h3.713c.973 0 1.732-.242 2.276-.725.544-.484.817-1.169.817-2.056 0-.93-.227-1.66-.68-2.191-.455-.531-1.153-.796-2.097-.796h-4.029zm0-1.68h3.474c.798 0 1.448-.22 1.949-.66.5-.44.751-1.052.751-1.837 0-.857-.27-1.499-.811-1.924-.54-.425-1.32-.638-2.336-.638h-3.027v5.06zm20.699 5.038h-6.642l-1.503 4.089h-2.188l6.13-15.876h1.84l6.032 15.876h-2.188l-1.481-4.09zm-5.978-1.8h5.335l-2.613-7.228h-.065l-2.657 7.229zm13.97 4.21h7.502v1.679h-9.647V14.643h2.145V28.84zm-63.63 21.454h-7.23v7.022h-2.145V41.44h10.485v1.69h-8.34v5.474h7.23v1.69zm5.88 7.022H85.67V41.44h2.156v15.876zm12.673-4.002a2.36 2.36 0 0 0-.817-1.826c-.544-.49-1.51-.903-2.896-1.238-1.677-.4-2.985-.988-3.925-1.766s-1.41-1.756-1.41-2.933c0-1.236.506-2.268 1.519-3.097 1.012-.829 2.324-1.243 3.936-1.243 1.735 0 3.116.476 4.143 1.428 1.027.953 1.522 2.058 1.486 3.315l-.022.066h-2.047c0-.93-.306-1.683-.92-2.258-.613-.574-1.493-.86-2.64-.86-1.067 0-1.886.24-2.455.724-.57.484-.855 1.114-.855 1.892 0 .69.308 1.267.925 1.728.617.462 1.619.867 3.005 1.216 1.67.414 2.94 1.025 3.811 1.832.871.807 1.307 1.806 1.307 2.998 0 1.28-.523 2.308-1.568 3.086s-2.41 1.167-4.094 1.167c-1.582 0-2.981-.43-4.197-1.287-1.216-.858-1.806-2.006-1.77-3.445l.022-.066h2.047c0 1.018.374 1.792 1.122 2.323.747.53 1.673.796 2.776.796 1.082 0 1.938-.23 2.57-.687.631-.458.947-1.08.947-1.865zm17.258 4.002h-2.145v-7.011h-7.698v7.01h-2.145V41.44h2.145v7.175h7.698V41.44h2.145v15.876zm6.184 0h-2.156V41.44h2.156v15.876zm16.027 0h-2.145l-7.632-12.278-.066.022v12.256h-2.145V41.44h2.145l7.633 12.256.065-.022V41.44h2.145v15.876zm15.407-2.105c-.377.582-1.033 1.116-1.965 1.603-.933.487-2.14.73-3.62.73-1.895 0-3.461-.606-4.699-1.82-1.237-1.214-1.856-2.784-1.856-4.71v-3.272c0-1.926.577-3.496 1.73-4.71 1.155-1.214 2.643-1.821 4.465-1.821 1.815 0 3.241.447 4.28 1.341 1.037.894 1.567 2.046 1.589 3.457l-.022.065h-2.047c-.065-.923-.416-1.683-1.05-2.279-.636-.596-1.552-.894-2.75-.894-1.212 0-2.188.454-2.929 1.363-.74.909-1.11 2.06-1.11 3.457v3.292c0 1.41.413 2.572 1.24 3.484.828.912 1.88 1.369 3.158 1.369.9 0 1.637-.12 2.21-.36.574-.24.984-.513 1.231-.818v-3.61h-3.473v-1.69h5.618v5.823zM75.752 78.617l.294 1.985.066.01.424-1.995 2.907-10.38h1.895l2.929 10.38.435 2.04h.066l.315-2.04 2.363-10.38h2.145l-3.822 15.876h-1.916L80.728 73.1l-.283-1.428h-.065l-.273 1.428-3.179 11.013h-1.916L71.2 68.237h2.134l2.417 10.38zm24.64 1.407H93.75l-1.502 4.089h-2.189l6.13-15.876h1.84l6.032 15.876h-2.188l-1.481-4.09zm-5.978-1.8h5.336l-2.614-7.228h-.065l-2.657 7.229zm22.56-8.297h-5.095v14.186h-2.145V69.927h-5.085v-1.69h12.326v1.69zm13.23 9.105l.021.065c.03 1.49-.493 2.737-1.567 3.74-1.075 1.003-2.494 1.505-4.258 1.505-1.793 0-3.253-.636-4.382-1.908-1.129-1.272-1.693-2.886-1.693-4.842v-2.824c0-1.955.564-3.57 1.693-4.846 1.129-1.276 2.59-1.914 4.382-1.914 1.793 0 3.22.478 4.28 1.434s1.574 2.222 1.545 3.8l-.021.065h-2.058c0-1.112-.327-1.992-.98-2.639-.653-.646-1.575-.97-2.766-.97-1.197 0-2.152.483-2.863 1.45-.712.967-1.067 2.166-1.067 3.598v2.846c0 1.447.355 2.654 1.067 3.62.711.967 1.666 1.45 2.863 1.45 1.19 0 2.113-.321 2.766-.964.653-.644.98-1.532.98-2.666h2.058zm14.905 5.08h-2.144v-7.01h-7.698v7.01h-2.145V68.238h2.145v7.175h7.698v-7.175h2.144v15.876z" fill="#FFF"/></g></svg>