<?xml version="1.0" encoding="UTF-8"?>
<svg width="1113px" height="324px" viewBox="0 0 1113 324" version="1.1" xmlns="http://www.w3.org/2000/svg" xmlns:xlink="http://www.w3.org/1999/xlink">
    <!-- Generator: Sketch 46 (44423) - http://www.bohemiancoding.com/sketch -->
    <title>GFW_Logo+NAME+Tag-reverse</title>
    <desc>Created with Sketch.</desc>
    <defs>
        <polygon id="path-1" points="857 85.946325 857 0.946325 0.849039928 0.946325 0.849039928 85.946325 857 85.946325"></polygon>
    </defs>
    <g id="Page-1" stroke="none" stroke-width="1" fill="none" fill-rule="evenodd">
        <g id="GFW_Logo+NAME+Tag-reverse">
            <g id="Group-11">
                <path d="M25.8555098,144.0684 C25.8555098,144.0684 67.6410344,76.9724 112.161379,68.4204 C112.161379,68.4204 121.613444,66.2424 121.265395,73.7614 C120.917346,81.2814 107.091428,85.6104 107.091428,85.6104 C107.091428,85.6104 119.325821,88.3724 109.735362,98.0714 C100.14387,107.7704 57.0611656,112.6144 25.8555098,144.0684" id="Fill-1" fill="#88B4B9"></path>
                <path d="M25.8555098,144.0684 C25.8555098,144.0684 -4.54457213,199.9694 58.8416902,241.7754 C122.227952,283.5814 134.228936,313.4184 134.228936,313.4184 C134.228936,313.4184 142.79487,322.7594 121.27469,323.0414 C99.7545098,323.3234 -61.7031295,278.9454 25.8555098,144.0684" id="Fill-3" fill="#88B4B9"></path>
                <path d="M136.267348,212.5566 C136.267348,212.5566 163.310872,224.1646 175.267446,209.3136 C187.22402,194.4616 159.082643,200.6016 136.267348,212.5566" id="Fill-5" fill="#DC402A"></path>
                <path d="M165.925166,67.8857 C165.925166,67.8857 128.735543,8.1697 89.1126738,0.5587 C89.1126738,0.5587 80.6995918,-1.3803 81.0094279,5.3117 C81.3192639,12.0047 93.6249197,15.8577 93.6249197,15.8577 C93.6249197,15.8577 82.7352148,18.3157 91.2711984,26.9477 C99.807182,35.5807 138.151461,39.8917 165.925166,67.8857" id="Fill-7" fill="#DC402A"></path>
                <path d="M165.925166,67.8857 C165.925166,67.8857 192.981084,117.6387 136.567166,154.8457 C80.1522148,192.0537 69.4711328,218.6097 69.4711328,218.6097 C69.4711328,218.6097 61.8481328,226.9227 81.0011656,227.1737 C100.154198,227.4247 243.8541,187.9277 165.925166,67.8857" id="Fill-9" fill="#DC402A"></path>
            </g>
            <g id="Group-13" transform="translate(231.000000, 122.000000)">
                <mask id="mask-2" fill="white">
                    <use xlink:href="#path-1"></use>
                </mask>
                <g id="Clip-12"></g>
                <text id="GLOBAL-FISHING-WATCH" fill="#FFFFFF" mask="url(#mask-2)" font-family="LucidaGrande, Lucida Grande" font-size="72" font-weight="normal">
                    <tspan x="0.849039928" y="70.946325">GLOBAL FISHING WATCH</tspan>
                </text>
            </g>
            <text id="Sustainability-through-Transparency" fill="#FFFFFF" font-family="LucidaGrande, Lucida Grande" font-size="48" font-weight="normal" letter-spacing="0.711">
                <tspan x="268" y="265">S</tspan>
                <tspan x="294.562563" y="265" letter-spacing="0.087">u</tspan>
                <tspan x="324.438625" y="265">s</tspan>
                <tspan x="349.618375" y="265" letter-spacing="0.087">t</tspan>
                <tspan x="367.6585" y="265" letter-spacing="-0.009">a</tspan>
                <tspan x="394.157312" y="265" letter-spacing="0.183">i</tspan>
                <tspan x="408.215312" y="265" letter-spacing="-0.009">n</tspan>
                <tspan x="437.995375" y="265" letter-spacing="0.231">a</tspan>
                <tspan x="464.734188" y="265" letter-spacing="0.135">b</tspan>
                <tspan x="495.080125" y="265" letter-spacing="-0.009">i</tspan>
                <tspan x="508.946125" y="265" letter-spacing="-0.057">l</tspan>
                <tspan x="522.764125" y="265" letter-spacing="0.519">i</tspan>
                <tspan x="537.158125" y="265" letter-spacing="1.383">t</tspan>
                <tspan x="556.49425" y="265" letter-spacing="0.903">y</tspan>
                <tspan x="582.475375" y="265" letter-spacing="-0.009"> </tspan>
                <tspan x="597.653875" y="265" letter-spacing="-0.057">t</tspan>
                <tspan x="615.55" y="265" letter-spacing="0.375">h</tspan>
                <tspan x="645.714062" y="265" letter-spacing="0.039">r</tspan>
                <tspan x="665.393687" y="265" letter-spacing="0.279">o</tspan>
                <tspan x="695.157062" y="265" letter-spacing="0.327">u</tspan>
                <tspan x="725.273125" y="265" letter-spacing="0.375">g</tspan>
                <tspan x="755.577812" y="265" letter-spacing="0.903">h</tspan>
                <tspan x="786.269875" y="265" letter-spacing="-0.057"> </tspan>
                <tspan x="801.400375" y="265" letter-spacing="-3.753">T</tspan>
                <tspan x="827.998937" y="265" letter-spacing="0.375">r</tspan>
                <tspan x="848.014562" y="265" letter-spacing="0.231">a</tspan>
                <tspan x="874.753375" y="265" letter-spacing="-0.009">n</tspan>
                <tspan x="904.533437" y="265" letter-spacing="0.279">s</tspan>
                <tspan x="929.281187" y="265" letter-spacing="-0.057">p</tspan>
                <tspan x="959.435125" y="265" letter-spacing="0.231">a</tspan>
                <tspan x="986.173937" y="265" letter-spacing="-0.009">r</tspan>
                <tspan x="1005.80556" y="265" letter-spacing="0.615">e</tspan>
                <tspan x="1033.16275" y="265" letter-spacing="0.327">nc</tspan>
                <tspan x="1088.19175" y="265" letter-spacing="-0.009">y</tspan>
            </text>
        </g>
    </g>
</svg>