<svg width="199" height="76" viewBox="0 0 199 76" xmlns="http://www.w3.org/2000/svg"><title>0E7F6A2E-257D-4610-9695-AA9AD4057663</title><path d="M0 38.023c0 8.97 6.72 16.393 15.388 17.53 1.208-10.384 9.466-18.648 19.852-19.848-1.026-7.796-7.135-13.994-14.876-15.17 1.022 6.714 5.82 12.195 12.155 14.2-2.27.52-4.42 1.36-6.398 2.47-5.814-3.544-9.912-9.643-10.728-16.726C6.72 21.62 0 29.04 0 38.022zM40.177 35.4c7.794-1.027 13.99-7.13 15.168-14.878-6.71 1.022-12.193 5.82-14.203 12.156-.522-2.27-1.36-4.416-2.46-6.4 3.54-5.816 9.635-9.906 16.715-10.73C54.264 6.88 46.844.16 37.86.16c-8.98 0-16.39 6.72-17.538 15.387C30.708 16.747 38.97 25.013 40.177 35.4zm20.156 20.162c8.672-1.145 15.397-8.566 15.397-17.54 0-8.978-6.725-16.4-15.393-17.543-1.205 10.394-9.47 18.657-19.865 19.86.99 7.82 7.114 13.998 14.886 15.165-1.02-6.716-5.82-12.2-12.156-14.206 2.27-.518 4.417-1.358 6.392-2.468 5.82 3.547 9.918 9.642 10.74 16.73zm-40.01 4.927c1.14 8.67 8.558 15.392 17.537 15.392 8.975 0 16.404-6.72 17.537-15.392-10.388-1.202-18.653-9.468-19.852-19.86-7.83.99-14.002 7.11-15.17 14.89 6.708-1.022 12.194-5.818 14.207-12.156.517 2.27 1.356 4.415 2.467 6.393-3.545 5.82-9.64 9.91-16.728 10.732zM93.445 31.71c3.495 0 6.277 2.82 6.277 6.278 0 3.46-2.802 6.262-6.277 6.262h-4.778v-12.54h4.778zm8.308 12.54h1.333v-12.54h-1.333v12.54zm10.022.3c-3.628 0-6.582-2.932-6.582-6.562 0-3.627 2.954-6.578 6.582-6.578 1.843 0 3.553.694 4.74 2.012-.21.205-.77.807-1.02 1.014-.902-1.035-2.216-1.674-3.7-1.674-2.803 0-5.1 2.33-5.1 5.226 0 2.897 2.297 5.21 5.1 5.21 1.446 0 2.742-.62 3.685-1.637.225.225.806.79.996.996-1.166 1.242-2.842 1.992-4.7 1.992zm5-.3c.206-.413 6.15-12.52 6.243-12.71h.075c.076.17 5.848 12.07 6.15 12.71h-1.526c-.152-.3-1.3-2.725-1.524-3.195h-6.374c-.15.28-1.37 2.8-1.542 3.195-.245.018-1.22 0-1.504 0zm13.724 0v-12.54h6.41c2.185 0 3.895 1.635 3.895 3.777 0 1.992-1.617 3.78-3.814 3.78h-5.173v4.982H130.5zm18.392-12.54c2.31 0 3.756 1.88 3.756 3.797 0 1.992-1.5 3.383-3.006 3.647.226.3 2.97 4.664 3.27 5.095h-1.653c-.245-.414-2.86-4.53-3.14-4.98h-4.457v4.98h-1.318v-12.54h6.547zm5.695 12.54h1.333v-12.54h-1.333v12.54zm16.602-6.262c0 3.63-2.953 6.563-6.583 6.563-3.627 0-6.58-2.933-6.58-6.563 0-3.627 2.953-6.58 6.58-6.58 3.63 0 6.582 2.953 6.582 6.58zm-82.32 9.883h8.915v1.297H90.19v4.23h6.168V54.7h-6.17v5.717h-1.317V47.873zm22.562 6.28c0 3.628-2.954 6.56-6.582 6.56-3.628 0-6.578-2.932-6.578-6.56 0-3.627 2.95-6.58 6.578-6.58s6.582 2.953 6.582 6.58zm1.878-6.28h1.337v8.16c0 1.768 1.41 3.272 3.27 3.272 1.842 0 3.273-1.504 3.273-3.273v-8.16h1.334v8.124c0 2.52-2.05 4.605-4.608 4.605-2.573 0-4.606-2.083-4.606-4.604v-8.123zm11.717-.168c.56.602 7.706 8.668 8.364 9.42v-9.252h1.317V60.64c-.695-.81-7.65-8.667-8.366-9.457v9.23h-1.313V47.706zm17.033.168c3.498 0 6.278 2.82 6.278 6.28 0 3.46-2.8 6.262-6.278 6.262h-4.775V47.873h4.775zm6.56 12.54c.205-.413 6.148-12.52 6.242-12.708h.074c.077.168 5.847 12.07 6.147 12.71h-1.52c-.152-.303-1.298-2.726-1.524-3.196h-6.377c-.148.28-1.37 2.8-1.54 3.194-.245.02-1.22 0-1.503 0zm16.51-11.243v11.245h-1.357V49.17h-4.23v-1.297h9.61v1.297h-4.024zm5.583 11.245h1.333V47.873h-1.333v12.542zm16.6-6.263c0 3.63-2.954 6.562-6.582 6.562-3.625 0-6.577-2.933-6.577-6.562 0-3.626 2.952-6.58 6.578-6.58 3.63 0 6.583 2.954 6.583 6.58zm1.936-6.447c.563.602 7.708 8.668 8.366 9.42v-9.252h1.317V60.64c-.695-.81-7.65-8.667-8.366-9.457v9.23h-1.318V47.706zM99.44 15.55h9.328v1.296h-8.01v4.213h6.617v1.296h-6.617v4.438h7.916v1.294H99.44v-12.54zm22.883 6.28c0 3.627-2.953 6.56-6.582 6.56-3.628 0-6.58-2.933-6.58-6.56 0-3.63 2.952-6.58 6.58-6.58 3.63 0 6.583 2.95 6.583 6.58zm1.933-6.453c.567.603 7.71 8.668 8.37 9.424V15.55h1.314v12.767c-.693-.808-7.65-8.67-8.366-9.458v9.23h-1.318v-12.71zm11.002 12.71c.206-.41 6.147-12.522 6.243-12.71h.075c.074.172 5.848 12.075 6.147 12.71H146.2c-.15-.298-1.297-2.724-1.525-3.194h-6.373c-.15.283-1.368 2.802-1.543 3.195-.243.02-1.218 0-1.502 0zm20.267-12.538c2.313 0 3.76 1.88 3.76 3.795 0 1.994-1.504 3.387-3.01 3.647.23.3 2.974 4.665 3.274 5.096h-1.654c-.248-.41-2.86-4.53-3.144-4.98H150.3v4.98h-1.318v-12.54h6.543zm10.287 0c3.495 0 6.278 2.82 6.278 6.28 0 3.458-2.803 6.258-6.278 6.258h-4.777v-12.54h4.777zm20.643 6.28c0 3.627-2.953 6.56-6.582 6.56-3.627 0-6.578-2.933-6.578-6.56 0-3.63 2.95-6.58 6.578-6.58 3.63 0 6.582 2.95 6.582 6.58zm-96.47 5.018v-11.3h-1.317v12.54h9.4v-1.24h-8.083zM159.51 37.99c0 2.933 2.278 5.266 5.097 5.266 2.822 0 5.096-2.333 5.096-5.266 0-2.93-2.274-5.28-5.096-5.28-2.82 0-5.097 2.35-5.097 5.28zm15.27-16.16c0 2.932 2.273 5.264 5.093 5.264s5.094-2.332 5.094-5.265c0-2.935-2.274-5.284-5.094-5.284-2.82 0-5.093 2.35-5.093 5.283zm-8.988 4.963c2.745 0 4.848-2.24 4.848-4.964 0-2.727-2.084-4.984-4.848-4.984h-3.44v9.947h3.44zm-10.4-4.982c1.525 0 2.407-1.148 2.407-2.465 0-1.24-.92-2.5-2.445-2.5H150.3v4.966h5.093zm-13.89-3.59c-.34.714-2.352 4.867-2.578 5.375h5.112c-.148-.356-2.237-4.72-2.535-5.375zm-30.857 3.61c0 2.932 2.276 5.264 5.096 5.264 2.82 0 5.096-2.332 5.096-5.265 0-2.935-2.275-5.284-5.095-5.284s-5.095 2.35-5.095 5.283zm64.993 32.322c0 2.935 2.274 5.266 5.093 5.266 2.824 0 5.1-2.33 5.1-5.266 0-2.93-2.276-5.283-5.1-5.283-2.818 0-5.092 2.35-5.092 5.282zm-20.776-3.61c-.34.715-2.35 4.87-2.577 5.38h5.113c-.148-.36-2.236-4.723-2.536-5.38zm-12.822 8.573c2.748 0 4.852-2.235 4.852-4.963 0-2.726-2.088-4.982-4.852-4.982h-3.44v9.945h3.44zm-42.286-4.963c0 2.935 2.277 5.266 5.096 5.266 2.823 0 5.096-2.33 5.096-5.266 0-2.93-2.273-5.283-5.096-5.283-2.82 0-5.096 2.35-5.096 5.282zm23.265-19.77c-.34.713-2.352 4.87-2.575 5.377h5.113c-.152-.36-2.24-4.72-2.54-5.377zm-29.594 8.575c2.744 0 4.85-2.24 4.85-4.967 0-2.724-2.086-4.982-4.85-4.982h-3.44v9.95h3.44zm55.33-4.985c1.526 0 2.41-1.145 2.41-2.463 0-1.244-.924-2.5-2.445-2.5h-5.057v4.962h5.093zm-16.94 0h5.024c1.275 0 2.48-.996 2.48-2.483 0-1.524-1.243-2.48-2.5-2.48h-5.003v4.962z" fill="#FEFEFE" fill-rule="evenodd"/></svg>
